<svg width="30" height="30" viewBox="0 0 30 30" fill="none" xmlns="http://www.w3.org/2000/svg">
<path d="M4 0C1.79086 0 0 1.79086 0 4V26C0 28.2091 1.79086 30 4 30H26C28.2091 30 30 28.2091 30 26V4C30 1.79086 28.2091 0 26 0H4ZM15.7999 22C15.1466 22 14.5756 21.5592 14.4101 20.9272L14.31 20.545C14.0855 19.6878 13.311 19.09 12.4249 19.09H11.5169C10.631 19.09 9.85665 19.6879 9.6325 20.545L9.53024 20.936C9.36633 21.5628 8.80011 22 8.15227 22V22C7.19139 22 6.50621 21.068 6.79279 20.1509L10.2659 9.03598C10.4992 8.28936 11.1906 7.781 11.9728 7.781V7.781C12.7538 7.781 13.4444 8.28774 13.6788 9.0327L17.1704 20.1322C17.4616 21.0578 16.7703 22 15.7999 22V22ZM21.85 20.6135C21.85 21.3792 21.2292 22 20.4635 22V22C19.6978 22 19.077 21.3792 19.077 20.6135V12.8205C19.077 12.0548 19.6978 11.434 20.4635 11.434V11.434C21.2292 11.434 21.85 12.0548 21.85 12.8205V20.6135ZM21.552 9.754C21.281 10.034 20.916 10.174 20.453 10.174C19.99 10.174 19.625 10.034 19.354 9.754C19.083 9.474 18.949 9.122 18.949 8.699C18.949 8.269 19.086 7.918 19.359 7.644C19.632 7.37 19.998 7.234 20.453 7.234C20.908 7.234 21.273 7.371 21.547 7.644C21.821 7.917 21.957 8.269 21.957 8.699C21.957 9.122 21.822 9.474 21.552 9.754Z" fill="black"/>
<path d="M10.9758 15.4123C10.8056 16.0619 11.2956 16.6969 11.9672 16.6969V16.6969C12.6387 16.6969 13.1288 16.0619 12.9585 15.4123V15.4123C12.6912 14.3922 11.2431 14.3922 10.9758 15.4123V15.4123Z" fill="black"/>
</svg>
