<svg width="123" height="99" viewBox="0 0 123 99" fill="none" xmlns="http://www.w3.org/2000/svg">
<g clip-path="url(#clip0_310_4983)">
<path fill-rule="evenodd" clip-rule="evenodd" d="M18.9402 67.7188L12.5102 70.0687L12.1602 89.1888L34.4102 81.0587C26.7902 78.4987 21.2102 73.9887 18.9402 67.7188Z" fill="black" fill-opacity="0.9"/>
<path fill-rule="evenodd" clip-rule="evenodd" d="M22.3 47.5L0 55.64L12.51 70.07L18.94 67.72C16.67 61.47 18.07 54.41 22.3 47.5Z" fill="black"/>
<path fill-rule="evenodd" clip-rule="evenodd" d="M59.8398 19.9016C31.4398 30.2816 13.1298 51.6916 18.9398 67.7216L121.79 30.1516C115.98 14.1116 88.2398 9.53162 59.8398 19.9016Z" fill="black" fill-opacity="0.7"/>
<path fill-rule="evenodd" clip-rule="evenodd" d="M80.8899 77.9684C109.29 67.5884 127.64 46.2784 121.79 30.1484L18.9399 67.7184C24.7899 83.8484 52.4899 88.3484 80.8899 77.9684Z" fill="black" fill-opacity="0.8"/>
<path fill-rule="evenodd" clip-rule="evenodd" d="M121.79 30.1484L18.9399 67.7184C20.9499 73.2684 28.6299 76.0084 39.4099 76.0084C49.9199 76.0084 63.3699 73.4084 77.3899 68.2884C105.79 57.9184 125.77 41.1184 121.79 30.1484Z" fill="black"/>
<path fill-rule="evenodd" clip-rule="evenodd" d="M101.32 21.8594C90.81 21.8594 77.37 24.4594 63.34 29.5794C34.94 39.9594 14.96 56.7494 18.93 67.7194L121.78 30.1494C119.78 24.5894 112.1 21.8594 101.32 21.8594Z" fill="black" fill-opacity="0.9"/>
<path fill-rule="evenodd" clip-rule="evenodd" d="M95.6399 90.2089C92.6099 90.2089 88.1499 87.4789 82.3699 82.0789C75.5299 75.6989 67.6999 66.3589 60.3199 55.7789C52.9399 45.1989 46.8699 34.6089 43.2399 25.9789C39.2799 16.5789 38.7199 10.7889 41.5599 8.78891C42.1799 8.34891 42.9399 8.12891 43.7899 8.12891C46.0999 8.12891 50.6099 9.84891 58.9499 18.0589L59.1299 18.2389L59.1099 18.4989C59.0499 19.0889 58.9999 19.6889 58.9499 20.2689L58.8599 21.4289L58.0399 20.6089C49.0599 11.5589 45.0999 10.5789 43.8199 10.5789C43.4499 10.5789 43.1599 10.6489 42.9499 10.7989C41.7199 11.6689 41.6399 15.9089 45.4699 25.0289C49.0399 33.5089 55.0199 43.9289 62.2999 54.3689C69.5899 64.8189 77.2999 74.0189 84.0199 80.2889C91.2599 87.0389 94.5199 87.7689 95.5899 87.7689C95.9599 87.7689 96.2599 87.6889 96.4799 87.5389C97.7799 86.6189 97.7799 82.0789 93.4999 72.2589L93.2999 71.8089L93.7299 71.5789C94.1599 71.3389 94.5799 71.1089 94.9699 70.8889L95.4899 70.5989L95.7299 71.1389C98.7699 78.0889 101.6 86.9289 97.8799 89.5389C97.2599 89.9789 96.5099 90.2089 95.6399 90.2089Z" fill="black" fill-opacity="0.8"/>
<path fill-rule="evenodd" clip-rule="evenodd" d="M81.5799 77.68L81.5399 78.22C80.8199 87.1 78.9299 97.79 73.9999 98.22C73.8999 98.23 73.7999 98.23 73.6899 98.23C70.3399 98.23 67.1699 93.43 64.2699 83.97C61.5299 75.02 59.3999 63 58.2799 50.12C57.1599 37.25 57.1699 25.04 58.3299 15.74C59.5899 5.61 61.9799 0.32 65.4399 0.01C65.5399 0 65.6499 0 65.7599 0C68.1899 0 71.8499 2.75 75.5999 15.56L73.1499 16.03C71.8999 11.75 70.5299 8.27 69.1799 5.87C67.9299 3.66 66.7099 2.44 65.7499 2.44C65.7199 2.44 65.6899 2.44 65.6599 2.44C64.1599 2.57 61.9799 6.21 60.7599 16.03C59.6299 25.16 59.6099 37.19 60.7199 49.89C61.8299 62.6 63.9199 74.44 66.6199 83.23C67.8299 87.17 69.1499 90.41 70.4499 92.61C71.6499 94.64 72.7999 95.76 73.7099 95.76C73.7399 95.76 73.7699 95.76 73.7999 95.76C75.2399 95.63 77.9399 91.85 79.0799 78.53L81.5799 77.68Z" fill="black" fill-opacity="0.8"/>
</g>
<defs>
<clipPath id="clip0_310_4983">
<rect width="122.88" height="98.22" fill="white"/>
</clipPath>
</defs>
</svg>
