<svg width="512" height="512" viewBox="0 0 512 512" fill="none" xmlns="http://www.w3.org/2000/svg">
<g clip-path="url(#clip0_2209_310)">
<path d="M409 205C428.347 222.482 440.833 246.456 442.192 272.71C442.273 276.945 442.294 281.177 442.291 285.414C442.297 287.031 442.303 288.649 442.311 290.266C442.328 294.623 442.333 298.98 442.335 303.337C442.336 306.063 442.34 308.789 442.345 311.515C442.364 321.034 442.372 330.552 442.371 340.071C442.369 348.933 442.391 357.794 442.422 366.656C442.448 374.282 442.459 381.907 442.458 389.533C442.457 394.081 442.463 398.628 442.484 403.175C442.503 407.445 442.504 411.715 442.489 415.985C442.487 417.55 442.492 419.114 442.504 420.679C442.519 422.818 442.51 424.956 442.494 427.095C442.496 428.291 442.497 429.486 442.498 430.718C441.895 434.692 440.485 436.878 438 440C434.927 441.536 431.698 441.165 428.325 441.177C427.533 441.184 426.741 441.19 425.925 441.197C423.297 441.217 420.67 441.228 418.043 441.238C417.146 441.242 416.25 441.246 415.326 441.251C410.581 441.272 405.835 441.286 401.09 441.295C396.187 441.306 391.284 441.341 386.381 441.38C382.613 441.406 378.844 441.415 375.075 441.418C373.268 441.423 371.461 441.435 369.654 441.453C367.123 441.478 364.594 441.477 362.063 441.47C360.945 441.489 360.945 441.489 359.804 441.509C354.92 441.46 352.422 440.484 349 437C347.696 434.392 347.866 432.478 347.855 429.557C347.845 427.822 347.845 427.822 347.834 426.052C347.83 424.139 347.83 424.139 347.826 422.188C347.82 420.836 347.813 419.484 347.806 418.132C347.791 415.216 347.78 412.299 347.77 409.383C347.755 404.763 347.731 400.143 347.705 395.524C347.634 382.385 347.574 369.246 347.523 356.107C347.495 348.854 347.459 341.602 347.417 334.349C347.39 329.766 347.372 325.183 347.36 320.6C347.351 317.732 347.334 314.865 347.314 311.997C347.303 310.054 347.302 308.111 347.301 306.168C347.203 294.26 346.535 284.091 338.211 275.059C332.074 269.203 325.986 266.942 317.562 266.562C309.563 266.82 302.422 269.701 296.535 275.156C291.239 281.517 288.879 288.723 288.869 296.869C288.865 298.07 288.861 299.27 288.857 300.506C288.857 301.819 288.858 303.133 288.858 304.486C288.855 305.886 288.852 307.285 288.848 308.685C288.84 311.697 288.835 314.71 288.831 317.723C288.825 322.488 288.809 327.253 288.79 332.019C288.784 333.651 288.777 335.284 288.771 336.916C288.768 337.733 288.765 338.551 288.761 339.393C288.719 350.486 288.686 361.578 288.674 372.671C288.666 380.156 288.643 387.641 288.605 395.126C288.585 399.086 288.573 403.045 288.578 407.005C288.582 410.73 288.568 414.454 288.541 418.179C288.53 420.194 288.54 422.208 288.55 424.223C288.435 435.328 288.435 435.328 284 440C280.927 441.536 277.698 441.165 274.325 441.177C273.533 441.184 272.741 441.19 271.925 441.197C269.297 441.217 266.67 441.228 264.043 441.238C263.146 441.242 262.25 441.246 261.326 441.251C256.581 441.272 251.835 441.286 247.09 441.295C242.187 441.306 237.284 441.341 232.381 441.38C228.613 441.406 224.844 441.415 221.075 441.418C219.268 441.423 217.461 441.435 215.654 441.453C213.123 441.478 210.594 441.477 208.063 441.47C206.945 441.489 206.945 441.489 205.804 441.509C200.92 441.46 198.422 440.484 195 437C193.865 434.731 193.871 433.493 193.863 430.973C193.858 430.125 193.853 429.278 193.848 428.405C193.847 427.469 193.847 426.533 193.846 425.568C193.842 424.577 193.837 423.587 193.833 422.566C193.819 419.226 193.813 415.886 193.807 412.546C193.799 410.159 193.791 407.773 193.782 405.387C193.758 398.211 193.743 391.035 193.73 383.859C193.727 381.832 193.723 379.806 193.719 377.78C193.693 365.202 193.671 352.623 193.659 340.045C193.656 337.131 193.653 334.217 193.65 331.303C193.649 330.217 193.649 330.217 193.648 329.108C193.635 317.372 193.602 305.635 193.56 293.899C193.518 281.854 193.494 269.809 193.489 257.764C193.485 250.999 193.474 244.235 193.441 237.47C193.411 231.108 193.404 224.747 193.416 218.385C193.416 216.047 193.408 213.709 193.391 211.371C193.368 208.185 193.376 205 193.392 201.813C193.371 200.419 193.371 200.419 193.35 198.996C193.406 194.466 193.517 192.611 196.413 188.949C200.554 185.829 202.828 185.866 208.017 185.839C209.1 185.831 209.1 185.831 210.205 185.824C212.6 185.809 214.995 185.802 217.391 185.797C219.055 185.791 220.719 185.785 222.383 185.78C225.877 185.769 229.371 185.763 232.865 185.76C237.335 185.754 241.805 185.73 246.274 185.702C249.715 185.683 253.155 185.678 256.595 185.676C258.242 185.673 259.89 185.665 261.537 185.652C263.847 185.635 266.156 185.637 268.466 185.644C269.779 185.64 271.092 185.636 272.445 185.633C276.292 186.03 278.71 187.005 282 189C284.647 192.404 284.584 196.837 285 201C285.548 200.576 286.096 200.152 286.66 199.715C323.817 172.224 374.118 176 409 205ZM284 231.5C283.278 232.335 282.556 233.171 281.812 234.031C280 236 280 236 278 237C268.43 237.309 268.43 237.309 266 236C264 230 264 230 263 207C246.83 207 230.66 207 214 207C214 277.29 214 347.58 214 420C231.49 420 248.98 420 267 420C267.022 414.142 267.022 414.142 267.044 408.165C267.095 395.237 267.161 382.309 267.236 369.381C267.281 361.545 267.32 353.71 267.346 345.875C267.369 339.04 267.403 332.206 267.449 325.372C267.473 321.758 267.491 318.144 267.498 314.529C267.505 310.482 267.535 306.435 267.568 302.388C267.566 301.206 267.565 300.024 267.563 298.806C267.737 283.338 272.173 270.351 282.875 259C293.596 248.91 306.669 245.535 321.082 245.789C331.53 246.352 342.619 249.61 350.187 257.191C351.809 259.235 351.809 259.235 354 259C354.271 259.574 354.541 260.147 354.82 260.738C356.019 263.037 357.385 265.068 358.875 267.188C363.831 274.531 367.1 281.686 367.158 290.606C367.173 292.318 367.173 292.318 367.188 294.065C367.194 295.313 367.199 296.561 367.205 297.847C367.215 299.164 367.225 300.481 367.235 301.839C367.262 305.448 367.283 309.057 367.303 312.666C367.325 316.439 367.353 320.212 367.379 323.985C367.429 331.128 367.474 338.271 367.517 345.415C367.567 353.548 367.622 361.681 367.677 369.814C367.791 386.542 367.897 403.271 368 420C385.49 420 402.98 420 421 420C421.068 400.832 421.123 381.664 421.155 362.496C421.171 353.594 421.192 344.693 421.226 335.791C421.256 328.027 421.276 320.262 421.282 312.497C421.286 308.391 421.295 304.286 421.317 300.18C421.338 296.304 421.344 292.427 421.339 288.55C421.34 287.139 421.346 285.728 421.358 284.317C421.509 264.982 417.318 247.335 405 232C404.332 231.169 403.665 230.337 402.977 229.48C390.301 214.586 373.227 205.181 353.875 202.25C325.49 200.419 302.816 210.43 284 231.5Z" fill="#0077B5"/>
<path d="M131.282 -0.63199C132.556 -0.645645 133.83 -0.659301 135.143 -0.67337C136.554 -0.663251 137.966 -0.652656 139.377 -0.641638C140.879 -0.648115 142.38 -0.656768 143.881 -0.667412C148.009 -0.690258 152.135 -0.68183 156.263 -0.668273C160.713 -0.659032 165.164 -0.6785 169.615 -0.69425C178.337 -0.720368 187.058 -0.71924 195.78 -0.708212C202.871 -0.699658 209.962 -0.700481 217.054 -0.708008C218.567 -0.70959 218.567 -0.70959 220.111 -0.711205C222.16 -0.713376 224.21 -0.715562 226.259 -0.717765C245.49 -0.737207 264.721 -0.725187 283.953 -0.702979C300.443 -0.684745 316.934 -0.695605 333.425 -0.727286C352.575 -0.764074 371.726 -0.781059 390.877 -0.767873C392.921 -0.766532 394.966 -0.765223 397.01 -0.763947C398.015 -0.763316 399.021 -0.762685 400.057 -0.762036C407.134 -0.759011 414.211 -0.770256 421.288 -0.787197C429.921 -0.807554 438.554 -0.806605 447.188 -0.778565C451.59 -0.76482 455.992 -0.760548 460.395 -0.782515C464.431 -0.802388 468.467 -0.794189 472.503 -0.76432C473.958 -0.75835 475.412 -0.762326 476.866 -0.777684C487.218 -0.878965 495.817 0.780019 503.923 7.62328C505.515 9.32909 506.763 11.0237 508 13C508.363 13.5508 508.727 14.1016 509.101 14.669C513.459 22.7154 512.561 31.8905 512.521 40.7686C512.527 42.6983 512.535 44.6279 512.545 46.5575C512.565 51.85 512.561 57.1423 512.552 62.4348C512.547 68.1466 512.565 73.8584 512.58 79.5702C512.606 90.7565 512.609 101.943 512.605 113.129C512.601 122.222 512.605 131.315 512.613 140.408C512.614 141.702 512.616 142.996 512.617 144.33C512.619 146.959 512.622 149.588 512.624 152.217C512.64 169.87 512.647 187.523 512.639 205.176C512.639 205.866 512.639 206.556 512.638 207.267C512.637 210.765 512.635 214.262 512.633 217.76C512.633 218.802 512.633 218.802 512.632 219.865C512.632 221.269 512.631 222.674 512.63 224.078C512.62 245.932 512.635 267.785 512.672 289.638C512.714 314.202 512.735 338.766 512.727 363.33C512.723 376.331 512.728 389.333 512.757 402.335C512.78 413.404 512.783 424.472 512.759 435.541C512.747 441.187 512.745 446.833 512.769 452.479C512.791 457.651 512.785 462.823 512.757 467.996C512.751 469.863 512.756 471.73 512.772 473.598C512.864 485.114 512.278 494.855 504.26 503.98C502.606 505.579 500.951 506.784 499 508C498.426 508.363 497.852 508.726 497.26 509.099C490.307 512.755 483.153 512.643 475.497 512.576C473.24 512.562 470.987 512.597 468.73 512.635C467.284 512.636 465.837 512.634 464.391 512.629C463.092 512.63 461.793 512.63 460.454 512.631C456.154 511.845 454.684 510.378 452 507C451.336 504.5 451.336 504.5 451.375 502C451.362 501.175 451.349 500.35 451.336 499.5C452.376 495.586 453.643 494.315 457 492C461.122 491.29 465.2 491.3 469.375 491.312C479.477 491.632 479.477 491.632 489 489C490.866 484.027 491.287 479.355 491.254 474.099C491.258 473.33 491.261 472.561 491.264 471.768C491.273 469.194 491.267 466.62 491.261 464.046C491.264 462.18 491.268 460.315 491.272 458.449C491.283 453.325 491.28 448.201 491.276 443.077C491.274 437.55 491.283 432.023 491.29 426.496C491.303 415.669 491.305 404.843 491.302 394.016C491.301 385.218 491.302 376.42 491.307 367.622C491.307 365.745 491.307 365.745 491.308 363.83C491.31 361.287 491.311 358.745 491.312 356.203C491.32 339.131 491.324 322.059 491.32 304.987C491.32 304.32 491.319 303.652 491.319 302.965C491.318 299.581 491.318 296.198 491.317 292.815C491.317 292.143 491.316 291.471 491.316 290.779C491.316 289.42 491.316 288.061 491.315 286.703C491.31 265.555 491.318 244.407 491.336 223.259C491.357 199.498 491.368 175.738 491.364 151.977C491.362 139.396 491.364 126.815 491.378 114.235C491.39 103.526 491.392 92.8177 491.38 82.1092C491.374 76.6441 491.373 71.179 491.385 65.7139C491.395 60.7127 491.392 55.7117 491.378 50.7104C491.376 48.8996 491.378 47.0888 491.386 45.278C491.396 42.8187 491.388 40.3601 491.375 37.9008C491.382 37.1961 491.389 36.4913 491.397 35.7652C491.342 30.7247 490.539 27.2933 488 23C483.942 20.9345 480.203 20.7505 475.7 20.7523C474.448 20.7479 473.195 20.7435 471.905 20.739C470.523 20.7442 469.141 20.7496 467.759 20.7552C466.285 20.7538 464.811 20.7514 463.337 20.7483C459.289 20.7422 455.242 20.7485 451.195 20.7566C446.829 20.7632 442.463 20.7582 438.097 20.7544C430.532 20.7492 422.968 20.7507 415.404 20.7562C403.451 20.7644 391.498 20.7532 379.546 20.739C375.457 20.7344 371.367 20.7299 367.278 20.7255C366.256 20.7244 365.234 20.7233 364.182 20.7222C352.553 20.71 340.924 20.7025 329.295 20.6965C328.232 20.696 327.169 20.6954 326.074 20.6949C308.835 20.6864 291.596 20.6898 274.356 20.6957C256.661 20.7013 238.966 20.6878 221.271 20.6581C210.354 20.6406 199.436 20.639 188.518 20.6578C181.041 20.6694 173.565 20.663 166.088 20.6423C161.771 20.631 157.455 20.6279 153.138 20.6465C149.189 20.6634 145.24 20.6574 141.29 20.633C139.859 20.6283 138.429 20.632 136.998 20.645C124.961 20.7469 124.961 20.7469 121.659 17.6171C119.874 14.8008 119.323 13.3109 119.375 10C119.362 9.17501 119.349 8.35001 119.336 7.50001C120.97 1.34673 125.34 -0.62468 131.282 -0.63199Z" fill="#0077B5" fill-opacity="0.6"/>
<path d="M36.5034 -0.57642C38.7603 -0.56244 41.013 -0.596843 43.2695 -0.63477C44.7162 -0.63572 46.1628 -0.633866 47.6094 -0.62891C49.558 -0.629998 49.558 -0.629998 51.5459 -0.631108C55.8457 0.154504 57.3159 1.62235 60 5C60.6641 7.5 60.6641 7.5 60.625 10C60.6379 10.825 60.6508 11.65 60.6641 12.5C59.6241 16.4153 58.3598 17.6871 55 20C50.8768 20.6845 46.797 20.6538 42.625 20.625C32.3259 20.3378 32.3259 20.3378 23 24C20.9816 28.5702 20.715 32.8579 20.7455 37.7778C20.7423 38.5458 20.7391 39.3137 20.7358 40.105C20.7275 42.6814 20.7334 45.2576 20.7393 47.8341C20.7363 49.6987 20.7324 51.5633 20.7277 53.4279C20.7174 58.5543 20.7196 63.6807 20.7239 68.8072C20.7264 74.3349 20.7174 79.8626 20.7099 85.3903C20.6971 96.2204 20.6953 107.05 20.6977 117.881C20.6994 126.681 20.6977 135.482 20.6934 144.283C20.6928 145.535 20.6923 146.786 20.6916 148.076C20.6904 150.618 20.6892 153.161 20.688 155.703C20.6802 172.779 20.6763 189.855 20.6803 206.931C20.6805 207.598 20.6806 208.266 20.6808 208.954C20.6816 212.339 20.6824 215.723 20.6833 219.108C20.6836 220.116 20.6836 220.116 20.6838 221.145C20.6842 222.504 20.6845 223.864 20.6849 225.223C20.6902 246.377 20.6823 267.532 20.6638 288.686C20.6431 312.452 20.6324 336.217 20.6364 359.983C20.6383 372.567 20.6358 385.151 20.6217 397.735C20.6098 408.447 20.6083 419.159 20.6205 429.871C20.6264 435.338 20.6274 440.805 20.6155 446.273C20.6047 451.276 20.6077 456.279 20.6217 461.282C20.6244 463.093 20.622 464.905 20.614 466.716C20.6039 469.177 20.6123 471.636 20.6253 474.096C20.618 474.801 20.6107 475.506 20.6031 476.233C20.6584 481.274 21.4607 484.706 24 489C28.058 491.066 31.7965 491.25 36.2997 491.248C37.5522 491.252 38.8046 491.257 40.095 491.261C41.477 491.256 42.859 491.25 44.241 491.245C45.7152 491.246 47.1893 491.249 48.6635 491.252C52.7107 491.258 56.7578 491.252 60.805 491.243C65.171 491.237 69.5371 491.242 73.9032 491.246C81.4677 491.251 89.0321 491.249 96.5965 491.244C108.549 491.236 120.502 491.247 132.454 491.261C136.544 491.266 140.633 491.27 144.722 491.274C145.744 491.276 146.766 491.277 147.818 491.278C159.447 491.29 171.076 491.298 182.705 491.303C183.768 491.304 184.831 491.305 185.926 491.305C203.165 491.314 220.404 491.31 237.644 491.304C255.339 491.299 273.034 491.312 290.729 491.342C301.646 491.359 312.564 491.361 323.482 491.342C330.959 491.331 338.435 491.337 345.912 491.358C350.229 491.369 354.545 491.372 358.862 491.354C362.811 491.337 366.76 491.343 370.71 491.367C372.141 491.372 373.571 491.368 375.002 491.355C387.039 491.253 387.039 491.253 390.341 494.383C392.126 497.199 392.677 498.689 392.625 502C392.638 502.825 392.651 503.65 392.664 504.5C391.7 508.128 389.854 509.614 387 512C384.052 512.628 384.052 512.628 380.718 512.632C379.444 512.646 378.17 512.659 376.857 512.673C375.446 512.663 374.034 512.653 372.623 512.642C371.121 512.648 369.62 512.657 368.119 512.667C363.991 512.69 359.865 512.682 355.737 512.668C351.287 512.659 346.836 512.679 342.385 512.694C333.663 512.72 324.942 512.719 316.22 512.708C309.129 512.7 302.038 512.7 294.946 512.708C293.433 512.71 293.433 512.71 291.889 512.711C289.84 512.713 287.79 512.716 285.741 512.718C266.51 512.737 247.279 512.725 228.047 512.703C211.557 512.685 195.066 512.696 178.575 512.727C159.425 512.764 140.274 512.781 121.123 512.768C119.079 512.767 117.034 512.765 114.99 512.764C113.985 512.763 112.979 512.763 111.943 512.762C104.866 512.759 97.7892 512.77 90.7125 512.787C82.079 512.808 73.4459 512.807 64.8125 512.779C60.4099 512.765 56.0078 512.761 51.6052 512.783C47.5686 512.802 43.5331 512.794 39.4966 512.764C38.0423 512.758 36.5879 512.762 35.1337 512.778C24.7823 512.879 16.1832 511.22 8.07722 504.377C6.48454 502.671 5.23738 500.976 4.00001 499C3.63674 498.449 3.27348 497.898 2.8992 497.331C-1.45912 489.285 -0.560694 480.11 -0.521381 471.231C-0.527425 469.302 -0.535205 467.372 -0.544566 465.443C-0.565128 460.15 -0.560761 454.858 -0.552203 449.565C-0.547269 443.853 -0.565298 438.142 -0.58028 432.43C-0.605779 421.244 -0.60936 410.057 -0.604678 398.871C-0.601112 389.778 -0.604612 380.685 -0.613128 371.592C-0.614318 370.298 -0.61551 369.004 -0.616737 367.67C-0.61916 365.041 -0.621586 362.412 -0.624019 359.783C-0.639593 342.13 -0.647431 324.477 -0.639385 306.824C-0.639072 306.134 -0.638761 305.444 -0.638438 304.733C-0.636827 301.235 -0.635134 297.738 -0.633411 294.24C-0.633069 293.546 -0.632729 292.851 -0.632377 292.135C-0.631684 290.731 -0.630983 289.326 -0.630283 287.922C-0.619569 266.068 -0.635428 244.215 -0.672351 222.362C-0.713805 197.798 -0.73517 173.234 -0.727199 148.67C-0.723374 135.669 -0.728361 122.667 -0.756629 109.665C-0.780452 98.5965 -0.783271 87.5278 -0.759048 76.4589C-0.747266 70.8128 -0.745082 65.1671 -0.769054 59.521C-0.790759 54.3486 -0.784581 49.1769 -0.75653 44.0044C-0.751233 42.1371 -0.755982 40.2696 -0.772002 38.4023C-0.863922 26.8861 -0.278152 17.1455 7.73999 8.01964C9.3941 6.42115 11.0495 5.21592 13 4C13.5742 3.63721 14.1484 3.27441 14.74 2.90063C21.6933 -0.754631 28.8466 -0.64276 36.5034 -0.57642Z" fill="#0077B5" fill-opacity="0.6"/>
<path d="M91.4973 185.823C92.6393 185.813 92.6393 185.813 93.8044 185.803C96.324 185.783 98.8436 185.772 101.363 185.762C102.225 185.758 103.086 185.754 103.973 185.749C108.532 185.729 113.091 185.714 117.649 185.705C122.354 185.694 127.057 185.659 131.762 185.62C135.383 185.593 139.004 185.585 142.625 185.582C144.359 185.577 146.093 185.565 147.827 185.547C150.256 185.522 152.685 185.523 155.114 185.53C155.827 185.517 156.539 185.504 157.273 185.491C162.287 185.543 165.139 186.852 169 190C170.135 192.27 170.128 193.507 170.134 196.027C170.139 196.875 170.143 197.722 170.148 198.595C170.148 199.531 170.147 200.467 170.147 201.432C170.151 202.423 170.155 203.413 170.158 204.434C170.169 207.774 170.173 211.114 170.177 214.454C170.183 216.841 170.19 219.227 170.197 221.613C170.216 228.789 170.227 235.965 170.236 243.141C170.24 246.519 170.245 249.897 170.251 253.275C170.268 264.502 170.282 275.728 170.289 286.955C170.291 289.869 170.293 292.783 170.295 295.697C170.296 296.421 170.296 297.146 170.297 297.892C170.305 309.628 170.33 321.365 170.363 333.101C170.396 345.146 170.414 357.191 170.417 369.236C170.419 376.001 170.428 382.765 170.453 389.53C170.477 395.892 170.481 402.254 170.471 408.615C170.47 410.953 170.477 413.291 170.49 415.629C170.508 418.815 170.501 422.001 170.488 425.187C170.499 426.117 170.51 427.046 170.521 428.004C170.479 432.205 170.365 434.415 168.094 438.051C164.384 441.504 161.164 441.165 156.325 441.193C155.137 441.205 155.137 441.205 153.925 441.218C151.298 441.243 148.67 441.259 146.043 441.273C145.146 441.279 144.25 441.284 143.326 441.29C138.581 441.316 133.835 441.336 129.09 441.35C124.187 441.367 119.284 441.412 114.381 441.462C110.613 441.496 106.844 441.508 103.075 441.513C101.268 441.52 99.4608 441.535 97.6536 441.559C95.1229 441.591 92.594 441.591 90.0632 441.583C89.3176 441.6 88.5719 441.616 87.8037 441.633C83.8307 441.586 82.1732 441.142 79.0585 438.589C75.4438 434.043 75.8491 430.266 75.8461 424.651C75.8417 423.669 75.8373 422.687 75.8328 421.676C75.8194 418.366 75.8132 415.055 75.8071 411.745C75.7992 409.38 75.7909 407.015 75.7823 404.65C75.7583 397.538 75.7432 390.426 75.7303 383.313C75.7266 381.305 75.7226 379.296 75.7185 377.288C75.6933 364.818 75.6712 352.349 75.6588 339.879C75.6559 336.99 75.6529 334.101 75.6499 331.212C75.6491 330.494 75.6484 329.776 75.6476 329.037C75.635 317.404 75.6017 305.772 75.5601 294.14C75.5177 282.2 75.4941 270.26 75.4889 258.32C75.4855 251.615 75.4737 244.91 75.4408 238.205C75.4108 231.898 75.4043 225.592 75.4162 219.285C75.4164 216.968 75.408 214.652 75.3905 212.336C75.3679 209.176 75.3761 206.017 75.392 202.857C75.3781 201.938 75.3642 201.02 75.3499 200.073C75.4033 195.781 75.6371 192.882 78.3505 189.446C82.4886 185.625 86.1508 185.843 91.4973 185.823ZM97 207C97 277.29 97 347.58 97 420C114.49 420 131.98 420 150 420C150 349.71 150 279.42 150 207C132.51 207 115.02 207 97 207Z" fill="#0077B5"/>
<path d="M151.816 78.4688C163.536 86.6868 171.897 97.2762 175.582 111.199C177.947 127.049 176.077 142.11 166.91 155.5C158.434 166.594 146.005 174.884 132 177C115.318 177.887 100.427 175.377 87.1875 164.25C76.9829 154.488 70.6892 141.947 69.7969 127.773C69.5792 111.99 73.7182 97.6838 84.8008 86.0313C103.27 68.9723 129.969 65.32 151.816 78.4688ZM99 102C92.8827 110.224 89.8014 118.722 91 129C93.3024 138.393 97.8461 146.642 106.105 151.969C114.426 156.498 123.474 157.48 132.738 155.379C142.024 152.13 148.647 145.723 153.125 137.078C156.376 129.358 156.293 119.524 153.5 111.688C149.116 102.367 142.46 96.7638 133 93C121.009 89.0029 107.734 93.2096 99 102Z" fill="#0077B5"/>
<path d="M427 492C430.125 493.875 430.125 493.875 432 497C432.989 502.026 432.777 505.705 430.125 510.125C425.705 512.777 422.026 512.989 417 512C413.875 510.125 413.875 510.125 412 507C411.011 501.974 411.223 498.295 413.875 493.875C418.295 491.223 421.974 491.011 427 492Z" fill="#0077B5"/>
<path d="M95 1.92523e-05C98.125 1.87502 98.125 1.87502 100 5.00002C100.989 10.0262 100.777 13.7052 98.125 18.125C93.7052 20.7769 90.0262 20.9888 85 20C81.875 18.125 81.875 18.125 80 15C79.0113 9.97379 79.2231 6.29488 81.875 1.87502C86.2949 -0.776898 89.9738 -0.988747 95 1.92523e-05Z" fill="#0077B5"/>
</g>
<defs>
<clipPath id="clip0_2209_310">
<rect width="512" height="512" fill="white"/>
</clipPath>
</defs>
</svg>
