<svg width="512" height="512" viewBox="0 0 512 512" fill="none" xmlns="http://www.w3.org/2000/svg">
<g clip-path="url(#clip0_2209_303)">
<path d="M89.7845 74.5478C100.918 81.8456 110.252 93.0349 119.645 102.371C120.479 103.2 121.313 104.029 122.172 104.883C126.577 109.261 130.979 113.643 135.378 118.028C139.003 121.639 142.635 125.244 146.274 128.842C150.693 133.211 155.099 137.593 159.497 141.984C161.166 143.646 162.839 145.304 164.517 146.958C166.864 149.273 169.195 151.604 171.523 153.939C172.209 154.609 172.895 155.279 173.602 155.969C180.418 162.874 184.486 170.451 185.25 180.188C184.437 192.589 178.439 199.875 169.875 208.215C168.265 209.804 166.656 211.393 165.047 212.982C162.521 215.464 159.993 217.944 157.463 220.421C155.01 222.825 152.567 225.238 150.125 227.652C149.371 228.385 148.616 229.117 147.839 229.872C141.906 235.749 137.475 241.214 136.91 249.82C137.056 253.358 138.244 256.013 140 259C140.454 259.776 140.907 260.552 141.375 261.352C144.01 265.646 146.793 269.771 149.867 273.762C150.363 274.412 150.86 275.062 151.371 275.732C152.351 277.007 153.346 278.27 154.355 279.521C157.82 284.025 158.838 287.294 159 293C157.451 296.668 155.538 299.133 152 301C147.361 301.601 144.475 301.158 140.637 298.456C137.169 295.372 134.711 291.447 132.125 287.625C131.514 286.732 130.902 285.84 130.272 284.92C119.93 269.67 113.021 258.038 116 239C118.913 227.647 127.096 219.591 135.305 211.676C136.873 210.138 138.44 208.599 140.008 207.061C142.452 204.672 144.9 202.288 147.355 199.912C149.745 197.594 152.12 195.261 154.492 192.926C155.231 192.219 155.969 191.513 156.73 190.785C159.646 187.899 161.714 185.731 163.219 181.88C162.691 174.94 156.088 169.808 151.417 165.175C150.659 164.415 149.901 163.654 149.12 162.871C146.624 160.372 144.121 157.879 141.617 155.387C139.879 153.649 138.14 151.911 136.402 150.173C132.766 146.538 129.126 142.906 125.483 139.277C120.806 134.617 116.135 129.95 111.467 125.281C107.881 121.696 104.293 118.113 100.704 114.531C98.9803 112.811 97.2571 111.09 95.5345 109.368C93.1334 106.969 90.729 104.573 88.3237 102.178C87.6078 101.462 86.8919 100.746 86.1544 100.008C85.5011 99.3587 84.8478 98.7097 84.1747 98.0411C83.6066 97.4746 83.0384 96.9081 82.453 96.3244C80.1916 94.2632 78.8919 93.9857 75.7922 93.574C70.6749 94.1489 68.7995 96.2158 65.3242 99.8164C64.7141 100.425 64.1041 101.033 63.4755 101.659C62.1856 102.953 60.9042 104.256 59.6311 105.566C57.7242 107.525 55.7884 109.45 53.8457 111.373C33.2743 132.025 21.758 155.676 21.5 185.062C21.6543 206.018 28.4547 222.578 38.0625 241C38.3924 241.634 38.7224 242.269 39.0624 242.922C57.4902 278.274 80.2858 311.56 106 342C106.769 342.918 106.769 342.918 107.554 343.854C118.865 357.347 130.949 370.034 143.375 382.5C144.302 383.432 145.23 384.364 146.185 385.324C151.297 390.424 156.5 395.323 162 400C163.118 400.973 164.235 401.947 165.352 402.922C172.801 409.375 180.384 415.611 188.199 421.616C189.397 422.537 190.592 423.461 191.785 424.388C215.008 442.426 240.113 457.82 265.915 471.859C267.917 472.955 269.906 474.069 271.895 475.188C295.769 488.486 322.418 494.62 349.535 488.031C366.767 482.903 380.968 475.565 394 463C395.265 461.909 396.535 460.826 397.812 459.75C401.616 456.43 405.222 452.922 408.812 449.375C409.376 448.824 409.94 448.273 410.521 447.706C416.041 442.336 416.041 442.336 418.125 435.188C415.483 427.7 407.986 421.839 402.444 416.315C401.724 415.593 401.005 414.872 400.264 414.129C397.911 411.772 395.555 409.419 393.199 407.066C391.555 405.421 389.91 403.776 388.266 402.131C384.834 398.697 381.401 395.266 377.966 391.835C373.556 387.431 369.151 383.023 364.747 378.613C361.359 375.222 357.969 371.833 354.579 368.445C352.952 366.819 351.327 365.193 349.702 363.566C347.44 361.301 345.175 359.04 342.909 356.78C341.898 355.766 341.898 355.766 340.867 354.732C340.252 354.119 339.637 353.507 339.003 352.876C338.468 352.341 337.933 351.807 337.382 351.256C335.413 349.466 334.004 349.001 331.375 348.5C323.824 349.619 317.828 358.094 312.711 363.438C311.343 364.842 309.975 366.246 308.605 367.648C306.491 369.819 304.381 371.993 302.289 374.185C292.367 384.552 281.898 395.272 266.68 396.203C244.797 396.473 230.461 384.577 213.875 371.476C212.187 370.147 210.486 368.837 208.777 367.535C207.881 366.843 206.986 366.151 206.062 365.438C205.311 364.859 204.559 364.28 203.785 363.684C201.015 361.071 200.114 358.871 199.625 355.125C200.099 351.178 201.557 349.09 204 346C207.684 344.158 211.075 344.141 215 345C218.67 347.165 221.87 349.828 225.159 352.527C228.719 355.375 232.428 358.022 236.125 360.688C236.9 361.248 237.674 361.808 238.473 362.385C249.339 370.754 249.339 370.755 262.187 374.313C262.903 374.35 263.618 374.387 264.355 374.426C272.826 373.062 278.139 367.357 283.812 361.438C284.626 360.609 285.439 359.781 286.277 358.927C288.861 356.294 291.432 353.649 294 351C297.384 347.509 300.781 344.032 304.187 340.563C304.952 339.765 305.717 338.967 306.505 338.144C313.327 331.2 320.072 326.914 330.062 326.688C349.44 326.945 361.878 344.681 374.645 357.371C375.479 358.2 376.313 359.029 377.172 359.883C381.577 364.261 385.979 368.643 390.378 373.028C394.003 376.639 397.635 380.244 401.274 383.842C405.693 388.211 410.099 392.593 414.497 396.984C416.166 398.646 417.839 400.304 419.517 401.958C421.864 404.273 424.195 406.604 426.523 408.939C427.552 409.944 427.552 409.944 428.602 410.969C435.315 417.769 440.009 425.853 440.312 435.563C440.075 447.16 434.724 454.328 426.759 462.243C424.811 464.189 422.902 466.169 420.992 468.152C397.962 491.878 368.871 511.609 334.52 512.238C319.959 512.449 306.031 512.329 292 508C291.335 507.796 290.669 507.593 289.984 507.383C262.92 498.767 237.629 482.394 214 467C213.346 466.577 212.693 466.153 212.019 465.717C196.27 455.49 181.201 444.441 166.753 432.449C164.25 430.38 161.716 428.35 159.187 426.313C154.582 422.544 150.171 418.592 145.801 414.555C144.357 413.238 142.91 411.924 141.418 410.663C134.569 404.853 128.299 398.45 121.964 392.094C119.942 390.067 117.916 388.046 115.889 386.025C109.713 379.853 103.622 373.687 98 367C96.9794 365.843 95.956 364.688 94.9297 363.535C87.4854 355.098 80.5391 346.373 73.7959 337.368C72.0513 335.068 70.2746 332.794 68.4957 330.521C62.6794 323.056 57.3421 315.329 52.125 307.438C51.6924 306.786 51.2599 306.134 50.8142 305.463C43.5433 294.502 36.5309 283.421 30 272C29.576 271.26 29.1521 270.519 28.7153 269.756C26.1851 265.314 23.7128 260.842 21.2783 256.347C19.9291 253.87 18.554 251.408 17.1797 248.945C12.353 240.169 8.12468 231.448 4.93747 221.938C4.66266 221.118 4.38785 220.298 4.10471 219.454C0.505685 208.036 -0.391205 196.804 -0.37503 184.875C-0.374487 184.195 -0.373943 183.514 -0.373383 182.813C-0.33284 171.754 0.550546 161.532 3.99997 151C4.21428 150.325 4.42858 149.65 4.64938 148.955C11.2437 128.664 22.4816 112.169 37.2148 96.8613C38.4854 95.5365 39.7476 94.2036 41.0039 92.8652C53.6186 79.4491 69.8048 63.2983 89.7845 74.5478Z" fill="#0077B5"/>
<path d="M360.827 9.92723C366.976 12.0659 373.008 14.4562 379 17C379.748 17.3169 380.497 17.6339 381.268 17.9604C396.909 24.7012 411.534 33.5818 425 44C425.813 44.6213 426.627 45.2426 427.465 45.8828C434.311 51.2255 440.694 57.0402 447 63C447.857 63.8031 448.714 64.6062 449.598 65.4336C455.979 71.5927 461.425 78.291 466.755 85.354C467.842 86.7908 468.945 88.2149 470.051 89.6367C491.139 117.449 503.718 149.885 510 184C510.133 184.714 510.266 185.429 510.402 186.165C511.988 195.126 512.242 204.107 512.375 213.187C512.414 214.82 512.414 214.82 512.454 216.486C512.471 224.213 512.471 224.213 510.102 228.176C506.798 231.043 504.427 231.349 500.035 231.277C496.729 230.827 495.188 229.445 493 227C490.859 221.995 490.729 217.465 490.625 212.125C489.971 194.049 486.565 176.196 481 159C480.647 157.891 480.647 157.891 480.287 156.759C464.711 108.736 429.048 67.1007 384.173 44.104C383.456 43.7397 382.739 43.3753 382 43C381.307 42.6421 380.615 42.2842 379.901 41.9155C354.816 29.0622 327.101 22.3982 298.978 21.4824C292.973 21.2255 287.266 20.9759 282.562 16.875C280.524 13.125 280.138 10.1816 281 5.99998C292.348 -11.7785 344.388 4.53547 360.827 9.92723Z" fill="#0077B5" fill-opacity="0.6"/>
<path d="M296.5 59.6875C297.908 59.696 297.908 59.696 299.344 59.7046C321.673 60.084 342.993 66.2803 363 76C364.083 76.5208 365.166 77.0416 366.281 77.5781C381.187 85.1784 394.092 95.3483 406 107C406.661 107.611 407.323 108.222 408.004 108.852C434.236 133.562 450.958 173.481 452.238 209.199C452.268 211.029 452.293 212.858 452.313 214.688C452.342 215.611 452.371 216.535 452.4 217.486C452.441 221.804 452.412 224.306 450.168 228.082C447.36 230.566 445.393 230.955 441.688 231.375C436.75 230.873 435.395 229.556 432 226C430.976 223.026 430.795 220.084 430.605 216.957C428.452 184.889 419.042 155.833 398 131C397.566 130.487 397.132 129.975 396.684 129.447C374.327 103.349 341.316 85.576 307 82C303.21 81.708 299.418 81.4845 295.618 81.3775C290.261 81.1938 286.626 80.5382 282.688 76.8125C280.531 73.2185 280.483 71.1333 281 67C284.505 59.4901 289.07 59.6411 296.5 59.6875Z" fill="#0077B5" fill-opacity="0.6"/>
<path d="M338.66 130.781C361.625 142.873 379.778 164.2 387.621 188.961C390.349 198.124 392.133 207.032 392.25 216.625C392.276 217.896 392.302 219.167 392.328 220.477C391.981 224.209 391.229 226.033 389 229C385.571 231.572 382.161 231.502 378 231C374.524 228.983 372.295 226.886 371 223C370.791 221.017 370.585 219.034 370.406 217.048C368.272 193.972 359.504 174.13 341.566 158.906C326.803 147.94 310.306 142.133 291.98 141.441C287.831 140.827 285.175 139.135 282.187 136.25C280.448 132.953 280.556 130.679 281 127C290.143 109.975 325.377 124.152 338.66 130.781Z" fill="#0077B5" fill-opacity="0.6"/>
<path d="M308 183C318.775 188.109 325.396 195.538 330.09 206.422C332.39 212.937 333.457 220.504 330.75 227C327.829 230.338 325.993 230.91 321.562 231.312C317.743 230.977 315.971 230.377 313 228C311.133 224.944 310.641 222.211 310.187 218.687C309.128 212.619 307.366 208.384 302.246 204.758C297.728 202.257 293.252 201.43 288.207 200.562C285.226 199.803 283.778 198.473 282 196C280.468 192.936 280.771 190.383 281 187C285.841 176.108 298.953 179.28 308 183Z" fill="#0077B5" fill-opacity="0.6"/>
<path d="M183 315C185.773 316.706 186.719 317.954 187.562 321.09C188.168 324.884 188.268 327.337 186.812 330.938C183.851 334.307 182.046 334.905 177.562 335.313C173.743 334.978 171.971 334.377 169 332C166.428 328.571 166.498 325.161 167 321C170.9 314.28 175.693 313.158 183 315Z" fill="#0077B5" fill-opacity="0.6"/>
</g>
<defs>
<clipPath id="clip0_2209_303">
<rect width="512" height="512" fill="white"/>
</clipPath>
</defs>
</svg>
