<svg width="512" height="512" viewBox="0 0 512 512" fill="none" xmlns="http://www.w3.org/2000/svg">
<g clip-path="url(#clip0_2209_297)">
<path d="M109.562 -0.375011C110.221 -0.374799 110.879 -0.374588 111.557 -0.37437C141.393 -0.278938 167.745 11.4475 189.25 31.875C209.658 53.455 220.415 79.9077 220.375 109.562C220.375 110.221 220.375 110.879 220.374 111.557C220.283 140.17 208.5 162.417 193.676 186.102C189.642 192.553 185.692 199.055 181.75 205.562C181.029 206.752 180.308 207.941 179.587 209.13C178.125 211.542 176.664 213.953 175.203 216.365C169.473 225.821 163.731 235.27 157.992 244.719C156.109 247.821 154.228 250.924 152.348 254.027C144.018 267.761 135.544 281.399 127 295C127.758 295.728 128.516 296.457 129.297 297.207C131.633 299.621 133.438 301.879 135.25 304.688C135.75 305.454 136.25 306.221 136.766 307.012C138 309 138 309 139 311C140.063 311.004 141.127 311.007 142.222 311.011C152.284 311.048 162.346 311.106 172.408 311.184C177.58 311.223 182.752 311.256 187.924 311.271C192.924 311.286 197.923 311.321 202.922 311.368C204.821 311.383 206.72 311.391 208.619 311.392C225.792 311.407 239.614 314.192 252.75 326.188C263.883 338.124 266.803 351.409 266.344 367.145C265.66 379.814 259.333 391.736 250.07 400.375C238.578 409.396 227.468 412.457 213.09 412.401C211.836 412.408 210.583 412.415 209.292 412.422C206.585 412.435 203.879 412.443 201.173 412.441C196.885 412.439 192.597 412.459 188.308 412.481C179.978 412.522 171.648 412.541 163.317 412.558C152.714 412.58 142.111 412.614 131.508 412.665C127.255 412.685 123.001 412.694 118.747 412.696C115.468 412.699 112.189 412.715 108.91 412.729C107.164 412.725 107.164 412.725 105.383 412.721C94.2294 412.791 83.8226 413.892 75.2109 421.602C68.5529 428.784 67.4216 435.948 67.6484 445.59C68.4121 452.997 71.6885 458.807 77 464C86.0238 470.446 95.8757 471.305 106.695 471.24C107.712 471.242 108.73 471.244 109.778 471.246C111.969 471.249 114.159 471.248 116.35 471.244C119.818 471.238 123.285 471.247 126.753 471.261C136.606 471.298 146.458 471.317 156.311 471.305C162.353 471.3 168.394 471.318 174.436 471.351C176.734 471.359 179.033 471.358 181.331 471.347C184.539 471.333 187.745 471.349 190.952 471.372C191.901 471.361 192.849 471.349 193.826 471.337C198.395 471.401 200.367 471.511 204.086 474.383C206.161 477.22 206.679 478.528 206.625 482C206.638 482.825 206.651 483.65 206.664 484.5C205.654 488.304 204.142 489.616 201 492C197.359 492.745 193.771 492.673 190.066 492.631C188.963 492.638 187.86 492.645 186.723 492.653C183.074 492.67 179.426 492.65 175.777 492.629C173.235 492.63 170.692 492.632 168.15 492.636C162.816 492.639 157.483 492.625 152.149 492.597C146.01 492.565 139.872 492.565 133.733 492.582C127.803 492.598 121.874 492.591 115.945 492.574C113.434 492.569 110.924 492.569 108.413 492.576C104.888 492.581 101.364 492.561 97.8396 492.533C96.8153 492.54 95.7909 492.546 94.7355 492.553C81.1584 492.376 69.2314 486.927 59.25 477.812C48.1166 465.876 45.1973 452.591 45.6562 436.855C46.3399 424.186 52.6672 412.264 61.9297 403.625C73.4224 394.604 84.5322 391.543 98.9102 391.599C100.79 391.589 100.79 391.589 102.708 391.578C105.415 391.565 108.121 391.557 110.827 391.559C115.115 391.561 119.403 391.541 123.692 391.519C132.022 391.478 140.352 391.459 148.683 391.442C159.286 391.42 169.889 391.386 180.492 391.335C184.745 391.315 188.999 391.306 193.253 391.304C196.532 391.301 199.811 391.285 203.09 391.271C204.836 391.275 204.836 391.275 206.617 391.279C216.838 391.215 226.652 390.4 235 384C242.528 376.213 244.486 369.203 244.316 358.48C243.64 351.037 240.326 345.208 235 340C224.053 332.181 211.318 332.609 198.391 332.453C197.141 332.437 197.141 332.437 195.867 332.421C191.47 332.368 187.074 332.329 182.677 332.3C179.051 332.273 175.427 332.217 171.801 332.136C167.4 332.037 163 331.988 158.598 331.973C156.928 331.96 155.258 331.93 153.589 331.882C148.558 331.745 143.892 331.729 139 333C136.546 335.375 135.377 337.363 134.097 340.514C131.792 345.738 126.64 348.186 121.727 350.625C114.312 353.361 106.016 353.265 98.5039 350.898C92.3803 348.039 87.6084 344.759 84 339C83.3851 338.068 83.3851 338.068 82.7578 337.117C78.9097 330.138 78.7495 321.74 80 314C82.4906 306.141 86.3521 300.787 93 296C87.4615 285.98 81.4955 276.24 75.4783 266.502C74.7667 265.35 74.0552 264.199 73.3438 263.047C72.8074 262.179 72.8074 262.179 72.2601 261.293C68.3291 254.923 64.4432 248.526 60.5625 242.125C60.2113 241.546 59.86 240.967 59.4981 240.37C56.6397 235.657 53.7833 230.943 50.9271 226.229C48.4316 222.111 45.9349 217.993 43.4375 213.875C43.0883 213.299 42.7392 212.723 42.3795 212.13C37.793 204.567 33.1732 197.026 28.5232 189.501C8.50514 157.095 -7.39872 124.306 1.625 85.0625C8.9621 56.0913 26.5097 30.7794 52 15C70.2334 4.8078 88.661 -0.402906 109.562 -0.375011ZM47.4888 45.5425C31.005 61.6803 20.9402 83.1506 20.6196 106.312C20.6561 128.784 26.1749 146.096 38.3125 165.125C39.3698 166.813 40.4271 168.5 41.4828 170.189C42.2125 171.355 42.9434 172.521 43.6754 173.686C47.3641 179.558 50.9639 185.483 54.5534 191.416C55.9817 193.777 57.4125 196.136 58.8432 198.496C59.5463 199.655 60.2493 200.815 60.9522 201.974C64.3571 207.591 67.7713 213.202 71.1875 218.812C71.7536 219.742 72.3196 220.672 72.9028 221.63C74.0346 223.488 75.1665 225.347 76.2983 227.206C79.7753 232.915 83.2508 238.626 86.7266 244.337C89.7795 249.352 92.8328 254.368 95.8867 259.383C96.5229 260.428 97.159 261.472 97.8145 262.549C99.0331 264.55 100.252 266.552 101.471 268.553C102.02 269.456 102.57 270.359 103.137 271.289C103.618 272.08 104.1 272.871 104.596 273.686C105.617 275.368 106.598 277.075 107.554 278.794C108.031 279.522 108.508 280.25 109 281C109.66 281 110.32 281 111 281C112.653 278.671 112.653 278.671 114.344 275.656C115.339 273.953 115.339 273.953 116.355 272.215C116.705 271.609 117.055 271.003 117.415 270.379C119.232 267.232 121.073 264.1 122.91 260.965C123.451 260.039 123.451 260.039 124.003 259.095C126.575 254.703 129.21 250.36 131.938 246.062C136.464 238.908 140.862 231.677 145.25 224.437C145.617 223.831 145.985 223.225 146.363 222.601C148.209 219.556 150.055 216.511 151.9 213.465C154.949 208.432 158.004 203.403 161.062 198.375C161.619 197.46 162.175 196.546 162.748 195.604C166.213 189.912 169.702 184.236 173.206 178.569C176.249 173.646 179.278 168.715 182.298 163.778C183.329 162.096 184.362 160.415 185.401 158.737C190.69 150.17 194.334 141.704 197 132C197.185 131.337 197.371 130.674 197.562 129.991C203.214 107.737 198.425 83.5303 187.223 63.8828C174.532 43.9002 155.543 29.1055 132.59 22.75C101.216 16.1952 71.0447 23.4147 47.4888 45.5425ZM101 318C100.302 320.84 100.302 323.16 101 326C102.989 328.984 104.385 330.603 107.938 331.477C111.861 331.759 113.671 331.219 117 329C119.219 325.671 119.759 323.861 119.477 319.938C118.603 316.385 116.984 314.989 114 313C108.183 311.569 104.392 312.912 101 318Z" fill="#0077B5"/>
<path d="M401.562 165.625C402.221 165.625 402.879 165.625 403.557 165.626C433.393 165.721 459.745 177.448 481.25 197.875C501.658 219.455 512.415 245.908 512.375 275.562C512.375 276.221 512.375 276.879 512.374 277.557C512.284 305.963 500.839 328.445 485.543 351.641C482.757 355.9 480.038 360.202 477.312 364.5C472.224 372.51 467.119 380.509 462 388.5C456.948 396.389 451.903 404.283 446.875 412.187C446.029 413.517 446.029 413.517 445.166 414.874C442.184 419.563 439.204 424.253 436.227 428.945C435.603 429.927 434.979 430.909 434.336 431.921C433.154 433.782 431.973 435.644 430.792 437.507C430.253 438.356 429.713 439.206 429.156 440.082C428.637 440.9 428.117 441.718 427.582 442.561C425.488 445.789 423.297 448.949 421.084 452.096C419.753 454.069 419.753 454.069 420 457C420.866 457.639 421.733 458.279 422.625 458.938C428.566 463.719 431.477 470.501 432.586 477.918C433.217 487.846 430.891 496.247 424.359 503.93C422.66 505.526 420.974 506.763 419 508C418.379 508.41 417.757 508.82 417.117 509.242C410.138 513.09 401.74 513.251 394 512C386.484 509.618 380.207 505.776 376 499C374.993 497.004 373.992 495.004 373 493C371.859 492.999 370.717 492.997 369.541 492.996C358.785 492.979 348.029 492.936 337.273 492.868C331.743 492.834 326.214 492.809 320.684 492.804C315.347 492.8 310.011 492.772 304.675 492.727C302.639 492.714 300.603 492.709 298.567 492.714C295.715 492.719 292.865 492.693 290.013 492.659C288.75 492.672 288.75 492.672 287.461 492.686C283.139 492.601 281.487 492.384 277.978 489.615C275.83 486.775 275.32 485.513 275.375 482C275.362 481.175 275.349 480.35 275.336 479.5C276.325 475.776 277.984 474.375 281 472C283.982 471.315 286.871 471.41 289.918 471.499C291.25 471.508 291.25 471.508 292.61 471.516C294.534 471.531 296.459 471.556 298.383 471.592C301.431 471.645 304.477 471.663 307.526 471.671C316.19 471.698 324.852 471.78 333.515 471.907C338.819 471.982 344.121 472.009 349.425 472.006C351.443 472.015 353.462 472.043 355.48 472.09C366.197 472.871 366.197 472.871 375.499 468.797C377.024 466.234 377.989 463.794 379 461C381.875 458.375 381.875 458.375 384 457C383.361 452.89 381.141 449.742 378.938 446.312C378.503 445.628 378.069 444.943 377.622 444.237C376.088 441.82 374.544 439.41 373 437C371.756 435.053 370.513 433.107 369.27 431.16C366.545 426.898 363.816 422.638 361.086 418.379C357.338 412.531 353.603 406.674 349.875 400.812C349.019 399.466 349.019 399.466 348.145 398.093C345.86 394.499 343.575 390.905 341.291 387.312C339.569 384.603 337.847 381.895 336.125 379.187C335.272 377.845 335.272 377.845 334.401 376.476C331.239 371.505 328.065 366.541 324.879 361.586C320.902 355.401 316.943 349.206 313 343C312.516 342.24 312.032 341.481 311.533 340.698C294.869 314.399 287.185 284.348 293.127 253.226C299.825 224.099 316.951 198.872 341.83 182.343C360.173 170.988 380.092 165.596 401.562 165.625ZM339.489 211.542C323.005 227.68 312.94 249.151 312.62 272.312C312.638 283.879 313.126 294.04 317 305C317.366 306.091 317.732 307.181 318.109 308.305C322.223 319.096 328.822 328.511 335.121 338.121C338.123 342.721 341.059 347.361 344 352C345.169 353.837 346.338 355.675 347.508 357.512C349.816 361.139 352.123 364.766 354.43 368.395C361.273 379.158 368.136 389.908 375.017 400.648C378.324 405.812 381.626 410.98 384.914 416.156C385.852 417.633 385.852 417.633 386.809 419.139C387.976 420.978 389.143 422.818 390.309 424.658C393.798 430.156 397.364 435.597 401 441C404.386 439.871 404.65 439.424 406.426 436.52C406.885 435.779 407.344 435.039 407.817 434.277C408.311 433.464 408.804 432.65 409.312 431.812C410.397 430.061 411.481 428.31 412.566 426.559C413.131 425.642 413.696 424.725 414.278 423.781C417.061 419.286 419.906 414.831 422.75 410.375C423.329 409.465 423.908 408.556 424.505 407.618C429.667 399.512 434.85 391.418 440.034 383.324C445.555 374.7 451.058 366.065 456.551 357.422C458.917 353.699 461.29 349.981 463.668 346.266C467.129 340.855 470.569 335.431 474 330C474.463 329.271 474.927 328.543 475.404 327.792C480.639 319.531 485.016 311.374 488 302C488.318 301.081 488.637 300.162 488.965 299.215C495.356 277.332 491.158 252.94 481 233C468.689 211.408 448.637 195.408 424.59 188.75C393.216 182.195 363.045 189.415 339.489 211.542ZM393 478C392.302 480.84 392.302 483.16 393 486C394.989 488.984 396.385 490.603 399.938 491.477C403.861 491.759 405.671 491.219 409 489C411.219 485.671 411.759 483.861 411.477 479.938C410.603 476.385 408.984 474.989 406 473C400.183 471.569 396.392 472.912 393 478Z" fill="#0077B5"/>
<path d="M435 237C443.648 243.871 450.443 255.018 452 266C453.409 283.557 450.566 296.96 439.414 310.996C431.187 320.006 419.439 325.64 407.352 326.312C390.867 326.875 377.702 323.183 365.25 311.812C354.117 299.876 351.197 286.591 351.656 270.855C352.34 258.186 358.667 246.264 367.93 237.625C388.352 221.595 414.262 221.553 435 237ZM378 258C372.912 266 372.275 273.633 373 283C374.82 290.124 379.137 296.447 385.281 300.508C393.629 305.251 402.162 306.747 411.676 304.316C420.639 300.586 425.977 294.728 430 286C432.256 279.233 432.126 270.672 429.375 264.062C425.483 256.69 420.109 251.002 412.238 247.918C398.984 244.161 387.031 247.865 378 258Z" fill="#0077B5" fill-opacity="0.6"/>
<path d="M143 71C151.648 77.8712 158.443 89.0184 160 100C161.409 117.557 158.566 130.96 147.414 144.996C139.187 154.006 127.439 159.64 115.352 160.312C98.8668 160.875 85.7022 157.183 73.25 145.812C62.1166 133.876 59.1973 120.591 59.6563 104.855C60.3399 92.1861 66.6672 80.2644 75.9297 71.625C96.3525 55.595 122.262 55.5534 143 71ZM86 92C80.9116 100 80.2747 107.633 81 117C82.8201 124.124 87.137 130.447 93.2813 134.508C101.629 139.251 110.162 140.747 119.676 138.316C128.639 134.586 133.977 128.728 138 120C140.256 113.233 140.126 104.672 137.375 98.0625C133.483 90.6901 128.109 85.0016 120.238 81.918C106.984 78.1606 95.0315 81.8651 86 92Z" fill="#0077B5" fill-opacity="0.6"/>
<path d="M246 472C249.125 473.875 249.125 473.875 251 477C251.989 482.026 251.777 485.705 249.125 490.125C244.705 492.777 241.026 492.989 236 492C232.875 490.125 232.875 490.125 231 487C230.011 481.974 230.223 478.295 232.875 473.875C237.295 471.223 240.974 471.011 246 472Z" fill="#0077B5" fill-opacity="0.6"/>
</g>
<defs>
<clipPath id="clip0_2209_297">
<rect width="512" height="512" fill="white"/>
</clipPath>
</defs>
</svg>
