<svg width="270" height="261" viewBox="0 0 270 261" fill="none" xmlns="http://www.w3.org/2000/svg">
<path d="M270 26.6298C265.67 18.0301 257.451 10.7778 249.04 6.42699C232.637 -2.05998 205.031 -4.75746 194.79 14.9462C185.557 32.7146 189.094 53.7978 192.736 72.562C196.03 89.5011 209.752 123.162 190.688 135.444C174.714 145.737 151.595 128.452 137.311 121.86C106.432 107.61 69.5192 123.46 59.0994 156.358C52.3188 177.766 65.2639 208.743 36.5538 216.25C-4.3034 226.93 0.141983 260 0.141983 260H270V26.6298Z" fill="#665BAD"/>
<path d="M269.167 80.6427C265.828 74.0276 259.492 68.4489 253.007 65.102C240.361 58.5736 219.076 56.4986 211.181 71.6553C204.062 85.3233 206.789 101.541 209.597 115.975C212.137 129.005 222.716 154.898 208.018 164.346C195.702 172.264 177.878 158.967 166.865 153.897C143.058 142.935 114.598 155.127 106.565 180.434C101.337 196.901 111.318 220.729 89.1826 226.504C57.6821 234.72 61.1095 260.158 61.1095 260.158H269.167V80.6427Z" fill="#988EDD"/>
<path d="M269.432 144.229C267.276 139.957 263.184 136.354 258.996 134.193C250.829 129.977 237.084 128.637 231.985 138.425C227.388 147.252 229.149 157.725 230.963 167.046C232.603 175.461 239.435 192.182 229.943 198.284C221.989 203.397 210.479 194.81 203.367 191.536C187.992 184.457 169.613 192.33 164.425 208.673C161.049 219.308 167.495 234.696 153.2 238.425C132.857 243.73 135.071 260.158 135.071 260.158H269.432V144.229Z" fill="#3821D1"/>
<path d="M269.939 53.1378C261.803 50.36 252.776 49.2213 244.518 51.8396C240.44 53.1881 236.737 55.6096 233.931 58.8442C231.221 62.1575 229.14 66.0018 227.577 69.9948C224.456 78.0419 223.558 86.7643 223.526 95.3622C223.523 99.6764 223.692 103.993 223.944 108.307C224.156 112.634 224.574 116.909 225.169 121.202C226.275 129.769 227.483 138.419 226.953 147.118C226.636 151.438 225.931 155.818 224.062 159.791C222.256 163.767 219.087 167.15 215.114 169.025C211.148 170.973 206.545 171.154 202.305 170.278C198.024 169.41 194.006 167.618 190.197 165.544C182.571 161.356 175.799 155.853 168.526 151.202C153.887 142.041 134.609 140.821 119.084 148.35C103.443 155.484 91.8245 171.003 90.2464 188.275C89.5832 192.539 89.0798 196.843 88.305 201.122C87.5236 205.388 86.4598 209.687 84.4002 213.597C82.3865 217.518 79.0574 220.798 75.0432 222.647C71.0399 224.612 66.5463 224.892 62.3701 225.748C53.9696 227.403 45.6325 230.786 39.5324 236.949C33.3491 242.924 29.5385 251.326 29.0941 259.95L29.0481 260L29 259.952C29.3196 251.295 32.9792 242.737 39.2041 236.619C45.3392 230.323 53.7595 226.826 62.2322 225.082C66.5069 224.179 70.8582 223.864 74.7039 221.935C78.554 220.114 81.6905 216.982 83.6079 213.179C87.4426 205.491 87.9504 196.642 89.3447 188.133C90.9512 170.658 102.819 154.771 118.72 147.572C134.525 139.908 154.113 141.426 168.8 150.767C176.093 155.49 182.806 161.009 190.374 165.22C194.15 167.305 198.134 169.106 202.362 169.989C206.56 170.89 211.087 170.627 214.961 168.706C218.844 166.835 221.908 163.516 223.653 159.603C225.461 155.696 226.13 151.364 226.415 147.085C226.879 138.461 225.627 129.856 224.465 121.296C223.843 117.019 223.388 112.676 223.151 108.357C222.869 104.034 222.659 99.7004 222.714 95.3556C222.803 86.7031 223.76 77.8954 226.98 69.7609C228.595 65.7155 230.709 61.8581 233.504 58.4771C236.4 55.1857 240.211 52.7313 244.369 51.385C252.809 48.7711 261.873 50.1567 269.972 53.0504L270 53.1094L269.939 53.1378Z" fill="#3821D1"/>
</svg>
