<svg width="1440" height="222" viewBox="0 0 1440 222" fill="none" xmlns="http://www.w3.org/2000/svg">
<path d="M0 94H34.3C68.6 94 137 94 206 99.3C274.3 105 343 115 411 99.3C480 83 549 41 617 51.3C685.7 62 754 126 823 115.3C891.4 105 960 19 1029 3.29997C1097.1 -13 1166 41 1234 67.3C1302.9 94 1371 94 1406 94H1440V222H1405.7C1371.4 222 1303 222 1234 222C1165.7 222 1097 222 1029 222C960 222 891 222 823 222C754.3 222 686 222 617 222C548.6 222 480 222 411 222C342.9 222 274 222 206 222C137.1 222 69 222 34 222H0V94Z" fill="#0C0E13"/>
</svg>
