<svg width="198" height="46" viewBox="0 0 198 46" fill="none" xmlns="http://www.w3.org/2000/svg">
<g clip-path="url(#clip0_1175_6265)">
<path d="M2.83122 28.5957C2.45962 28.5944 2.09141 28.6657 1.74775 28.8055C1.40409 28.9453 1.09174 29.1509 0.828663 29.4105C0.565582 29.67 0.356946 29.9784 0.214738 30.318C0.0725311 30.6575 -0.000444862 31.0215 2.04024e-06 31.389V43.206C0.000895092 43.9465 0.298759 44.6565 0.828258 45.1801C1.35776 45.7038 2.07565 45.9983 2.82448 45.9992H14.7737C15.5227 45.9992 16.2412 45.7049 16.7709 45.1811C17.3005 44.6573 17.5981 43.9468 17.5981 43.206C17.5981 42.4652 17.3005 41.7547 16.7709 41.2309C16.2412 40.707 15.5227 40.4128 14.7737 40.4128H8.02461C7.39813 40.4128 6.7973 40.1666 6.35431 39.7285C5.91132 39.2905 5.66245 38.6963 5.66245 38.0767V31.4023C5.66245 30.6615 5.36487 29.951 4.83518 29.4272C4.30549 28.9034 3.58707 28.6091 2.83797 28.6091L2.83122 28.5957Z" fill="#EF402F"/>
<path d="M2.08323e-06 8.31336V20.2439C2.08323e-06 20.6067 0.0722737 20.966 0.212691 21.3013C0.353107 21.6365 0.558919 21.9412 0.818376 22.1977C1.07783 22.4543 1.38585 22.6579 1.72485 22.7967C2.06384 22.9356 2.42718 23.0071 2.7941 23.0071C3.16974 23.0075 3.54177 22.9347 3.88893 22.7929C4.2361 22.651 4.55158 22.4429 4.81735 22.1803C5.08312 21.9178 5.29396 21.6061 5.43781 21.2629C5.58166 20.9198 5.6557 20.5519 5.6557 20.1805V13.506C5.6557 12.8927 5.90208 12.3044 6.34064 11.8707C6.7792 11.437 7.37402 11.1934 7.99424 11.1934H14.804C15.5451 11.1934 16.2558 10.9022 16.7798 10.384C17.3037 9.86584 17.5981 9.16301 17.5981 8.43016V8.31669C17.599 7.95959 17.5284 7.60584 17.3905 7.27583C17.2525 6.94582 17.0498 6.64608 16.7942 6.39387C16.5385 6.14167 16.2349 5.94199 15.9009 5.80635C15.5669 5.67071 15.209 5.60179 14.8479 5.60355H2.74011C2.38015 5.60311 2.02364 5.6729 1.69099 5.80893C1.35835 5.94495 1.0561 6.14454 0.801571 6.39625C0.54704 6.64797 0.345222 6.94687 0.207676 7.27584C0.0701299 7.60481 -0.00044204 7.95738 2.08323e-06 8.31336Z" fill="#F4B223"/>
<path d="M32.8313 40.4127H26.0823C25.7112 40.4123 25.3438 40.4843 25.0009 40.6245C24.658 40.7647 24.3465 40.9704 24.0841 41.2299C23.8217 41.4894 23.6137 41.7975 23.4719 42.1365C23.3301 42.4756 23.2574 42.8391 23.2578 43.206C23.2574 43.5729 23.3301 43.9363 23.4719 44.2754C23.6137 44.6145 23.8217 44.9226 24.0841 45.1821C24.3465 45.4416 24.658 45.6473 25.0009 45.7875C25.3438 45.9277 25.7112 45.9997 26.0823 45.9992H38.0315C38.4024 45.9992 38.7697 45.927 39.1123 45.7866C39.455 45.6462 39.7664 45.4405 40.0287 45.1811C40.2909 44.9217 40.499 44.6138 40.6409 44.2749C40.7829 43.936 40.8559 43.5728 40.8559 43.206V31.3889C40.8564 31.022 40.7836 30.6586 40.6418 30.3195C40.5001 29.9804 40.292 29.6723 40.0297 29.4129C39.7673 29.1534 39.4558 28.9477 39.1129 28.8074C38.77 28.6672 38.4025 28.5953 38.0315 28.5957C37.6603 28.5948 37.2926 28.6665 36.9495 28.8065C36.6065 28.9466 36.2947 29.1523 36.0323 29.4119C35.7698 29.6714 35.5618 29.9797 35.4202 30.319C35.2786 30.6583 35.2061 31.0219 35.207 31.3889V38.0634C35.207 38.6829 34.9581 39.2771 34.5151 39.7152C34.0721 40.1533 33.4713 40.3994 32.8448 40.3994L32.8313 40.4127Z" fill="#2C9942"/>
<path d="M41.5331 1.13213e-06H28.2308C27.5766 -0.000437645 26.9287 0.12667 26.3242 0.374055C25.7197 0.62144 25.1704 0.984248 24.7078 1.44173C24.2453 1.89921 23.8784 2.44239 23.6282 3.04021C23.3781 3.63802 23.2496 4.27874 23.25 4.92571V18.081C23.2496 18.7279 23.3781 19.3687 23.6282 19.9665C23.8784 20.5643 24.2453 21.1075 24.7078 21.5649C25.1704 22.0224 25.7197 22.3852 26.3242 22.6326C26.9287 22.88 27.5766 23.0071 28.2308 23.0067H41.5331C42.1874 23.0071 42.8352 22.88 43.4397 22.6326C44.0442 22.3852 44.5935 22.0224 45.0561 21.5649C45.5187 21.1075 45.8856 20.5643 46.1357 19.9665C46.3859 19.3687 46.5144 18.7279 46.5139 18.081V4.92571C46.5139 4.27886 46.3851 3.63834 46.1348 3.04072C45.8845 2.44311 45.5176 1.9001 45.0551 1.44271C44.5926 0.985314 44.0435 0.622489 43.4392 0.374949C42.8349 0.127408 42.1872 1.13213e-06 41.5331 1.13213e-06Z" fill="#0075C9"/>
<path d="M68.7889 17.9147C67.1564 17.0397 65.3203 16.6035 63.4639 16.6499C61.3309 16.5979 59.226 17.1403 57.3898 18.215C55.7068 19.2179 54.3513 20.6789 53.4855 22.4233C52.587 24.2487 52.1329 26.2567 52.1593 28.2867C52.1323 30.4018 52.6281 32.4913 53.6036 34.3738C54.5684 36.1961 56.0464 37.703 57.8589 38.7121C59.7351 39.7867 62.0061 40.3229 64.672 40.3207C67.3486 40.3474 69.9939 39.7494 72.3929 38.5753L72.0217 34.297C69.9312 35.4425 67.5747 36.0292 65.1849 35.999C63.1377 35.999 61.4246 35.4628 60.0455 34.3905C58.6665 33.3181 57.8375 31.6006 57.5585 29.2378H73.0813C73.3056 28.3188 73.4189 27.3767 73.4188 26.4312C73.4532 24.675 73.0462 22.9377 72.2343 21.3754C71.4475 19.9173 70.2509 18.7154 68.7889 17.9147ZM57.7441 25.7571C58.518 22.5668 60.4089 20.9727 63.4167 20.9749C64.9915 20.9749 66.1692 21.4343 66.9498 22.3532C67.7394 23.3123 68.1528 24.5209 68.114 25.7571H57.7441Z" fill="#101820"/>
<path d="M87.0888 16.6489C84.639 16.6266 82.2559 17.4385 80.3398 18.9482L80.1542 17.0627H75.5547V39.8725H80.7616V23.2265C81.9382 21.7248 83.613 20.9739 85.7862 20.9739C87.6152 20.9739 88.9245 21.4945 89.7142 22.5357C90.5038 23.5769 90.8998 25.2322 90.902 27.5015V39.8725H96.0617V27.1911C96.0617 23.9118 95.3181 21.3365 93.8311 19.4655C92.3441 17.5944 90.0966 16.6556 87.0888 16.6489Z" fill="#101820"/>
<path d="M105.875 11.2695L100.668 11.8202V17.0629H97.631L97.1855 21.201H100.675V34.5499C100.641 36.0609 101.199 37.5264 102.23 38.6413C103.27 39.7759 104.797 40.3432 106.813 40.3432H110.812L111.278 36.1584H109.874C108.945 36.1975 108.015 36.1201 107.107 35.9281C106.863 35.8655 106.641 35.7396 106.463 35.5636C106.285 35.3876 106.158 35.1678 106.094 34.927C105.899 34.0125 105.821 33.0775 105.861 32.1437V21.201H111.301V17.0629H105.875V11.2695Z" fill="#101820"/>
<path d="M129.64 18.1919C127.723 17.1499 125.572 16.6035 123.385 16.6035C121.198 16.6035 119.047 17.1499 117.13 18.1919C115.387 19.2156 113.971 20.7056 113.047 22.4902C112.092 24.3409 111.606 26.393 111.63 28.4705C111.606 30.5468 112.092 32.5979 113.047 34.4474C113.968 36.2311 115.378 37.722 117.117 38.749C119.034 39.7889 121.185 40.3341 123.371 40.3341C125.558 40.3341 127.709 39.7889 129.626 38.749C131.362 37.7254 132.767 36.2331 133.675 34.4474C134.616 32.5939 135.094 30.5443 135.069 28.4705C135.094 26.3956 134.616 24.3449 133.675 22.4902C132.771 20.7072 131.371 19.2162 129.64 18.1919ZM128.081 33.9869C126.956 35.3373 125.381 36.0125 123.356 36.0125C121.331 36.0125 119.766 35.3373 118.659 33.9869C117.534 32.6386 116.972 30.7998 116.972 28.4705C116.972 26.1411 117.534 24.309 118.659 22.9741C119.784 21.6081 121.349 20.9262 123.356 20.9284C125.363 20.9306 126.938 21.6125 128.081 22.9741C129.205 24.3401 129.768 26.1722 129.768 28.4705C129.768 30.7687 129.205 32.6075 128.081 33.9869Z" fill="#101820"/>
<path d="M163.587 16.6489C162.007 16.615 160.441 16.9381 159.007 17.5933C157.721 18.1932 156.62 19.1218 155.818 20.2831C154.363 17.8603 152.054 16.6489 148.89 16.6489C146.364 16.6345 143.913 17.4965 141.963 19.0851L141.625 17.0627H137.312V39.8725H142.519V23.2732C143.698 21.7381 145.385 20.9717 147.581 20.9739C149.194 20.9739 150.396 21.4789 151.185 22.489C151.975 23.4991 152.371 25.1677 152.373 27.4948V39.8658H157.533V26.9976C157.533 25.1888 157.936 23.7327 158.744 22.6292C159.552 21.5257 160.869 20.9695 162.696 20.9606C164.369 20.9606 165.571 21.4578 166.3 22.4523C167.029 23.4468 167.393 25.0186 167.393 27.1678V39.8491H172.607V26.9041C172.607 23.5936 171.863 21.0573 170.376 19.2953C168.889 17.5333 166.626 16.6511 163.587 16.6489Z" fill="#101820"/>
<path d="M196.603 22.4902C195.696 20.7048 194.291 19.2133 192.554 18.1919C190.637 17.1499 188.486 16.6035 186.299 16.6035C184.112 16.6035 181.961 17.1499 180.044 18.1919C178.307 19.2192 176.897 20.7086 175.975 22.4902C175.02 24.3409 174.534 26.393 174.557 28.4705C174.534 30.5468 175.02 32.5979 175.975 34.4474C176.897 36.2297 178.307 37.7201 180.044 38.749C181.961 39.7889 184.113 40.3341 186.299 40.3341C188.486 40.3341 190.637 39.7889 192.554 38.749C194.291 37.7264 195.696 36.2338 196.603 34.4474C197.545 32.5941 198.024 30.5445 198 28.4705C198.024 26.3953 197.545 24.3447 196.603 22.4902ZM190.998 33.9869C189.873 35.3373 188.299 36.0125 186.274 36.0125C184.249 36.0125 182.683 35.3373 181.576 33.9869C180.452 32.6386 179.889 30.7998 179.889 28.4705C179.889 26.1411 180.452 24.309 181.576 22.9741C182.701 21.6081 184.267 20.9262 186.274 20.9284C188.281 20.9306 189.855 21.6125 190.998 22.9741C192.123 24.3401 192.685 26.1722 192.685 28.4705C192.685 30.7687 192.123 32.6075 190.998 33.9869Z" fill="#101820"/>
</g>
<defs>
<clipPath id="clip0_1175_6265">
<rect width="198" height="46" fill="white"/>
</clipPath>
</defs>
</svg>
