<svg width="144" height="36" viewBox="0 0 144 36" fill="none" xmlns="http://www.w3.org/2000/svg">
<g clip-path="url(#clip0_527_17)">
<path d="M15.8 18L19.4 0H16.4L12.8 18L16.4 36H19.4L15.8 18Z" fill="#430099"/>
<path d="M3.3 18L12.9 0H9.6L0 18L9.6 36H12.9L3.3 18ZM29.9 18L26.3 0H23.3L26.9 18L23.3 36H26.3L29.9 18Z" fill="#430099"/>
<path d="M42.7001 18L33.1 0H29.8L39.4001 18L29.8 36H33.1L42.7001 18ZM131.9 20.3L135.2 12L138.5 20.3H131.9ZM131 22.7H139.5L141.1 26.8H144L136.9 9.3H133.7L126.6 26.8H129.4L131 22.7ZM123.1 9.3H120.4V26.8H123.1V9.3ZM114.7 26.8V9.3H110.9L105.3 22.8L99.7 9.3H96V26.8H98.7V13.7H98.8L104.2 26.8H106.5L112 13.7V26.8H114.7ZM80 9.3V26.8H91.3001V24.3H82.8001V19.1H90.5V16.6H82.8001V11.8H91.3001V9.3H80ZM72.6 18.1C72.6 19.3 72.3 20.5 71.6 21.5C71.2 22 70.8001 22.5 70.3001 22.9C69.1001 23.8 67.5 24.3 66 24.2H63.3V11.9H66.1C67.6 11.9 69.2001 12.3 70.4001 13.3C71.8001 14.5 72.6 16.2 72.6 18.1ZM75.5 18C75.5 16.2 74.9 14.5 74 13C73.2 11.9 72.2 10.9 71 10.3C69.5 9.6 67.9 9.2 66.2 9.2H60.7001V26.7H66.3001C68.5001 26.8 70.6001 26.1 72.4001 24.8C74.3001 23.2 75.5 20.7 75.5 18ZM55 9.3H52.3V26.8H55V9.3Z" fill="#430099"/>
</g>
<defs>
<clipPath id="clip0_527_17">
<rect width="144" height="36" fill="white"/>
</clipPath>
</defs>
</svg>
