<svg xmlns="http://www.w3.org/2000/svg" id="Layer_1" data-name="Layer 1" viewBox="0 0 234 36"><defs><style>      .cls-1 {        fill: #e63139;      }      .cls-2 {        fill: #29287d;      }      .cls-3 {        fill: none;      }    </style></defs><rect class="cls-1" x="1" y="1" width="7" height="7"></rect><rect class="cls-1" x="10" y="1" width="7" height="7"></rect><rect class="cls-1" x="19" y="1" width="7" height="7"></rect><rect class="cls-1" x="28.001" y="1" width="6.999" height="7"></rect><rect class="cls-2" x="1" y="10" width="7" height="7"></rect><rect class="cls-2" x="10" y="10" width="7" height="7"></rect><rect class="cls-1" x="19" y="10" width="7" height="7"></rect><rect class="cls-1" x="28.001" y="10" width="6.999" height="7"></rect><rect class="cls-1" x="1" y="19" width="7" height="7"></rect><rect class="cls-2" x="10" y="19" width="7" height="7"></rect><rect class="cls-2" x="19" y="19" width="7" height="7"></rect><rect class="cls-1" x="28.001" y="19" width="6.999" height="7"></rect><rect class="cls-2" x="1" y="28" width="7" height="7"></rect><rect class="cls-1" x="10" y="28" width="7" height="7"></rect><rect class="cls-1" x="19" y="28" width="7" height="7"></rect><rect class="cls-1" x="28.001" y="28" width="6.999" height="7"></rect><g><path class="cls-2" d="M50.2,30.7c0,4.351,4.4,2.25,4.4,3.8a.591.591,0,0,1-.65.6c-1.2,0-2.4-.1-6.15-.1s-4.951.1-6.151.1a.591.591,0,0,1-.65-.6c0-1.551,4.4.55,4.4-3.8V5.4c0-4.35-4.4-2.25-4.4-3.8a.591.591,0,0,1,.65-.6c1.2,0,2.4.1,6.151.1s4.95-.1,6.15-.1a.591.591,0,0,1,.65.6c0,1.55-4.4-.55-4.4,3.8Z"></path><path class="cls-2" d="M60.545,5.4c0-4.35-4.4-2.25-4.4-3.8A.591.591,0,0,1,56.8,1c1.2,0,2.4.1,6.15.1,2.7,0,4.7-.1,7.5-.1,8.451,0,12,3.95,12,8.351,0,4.7-4.25,7.251-10.6,7.7v.1c7.2.25,12.2,3.4,12.2,8.651,0,7.051-5.5,9.3-12.451,9.3-2.951,0-5.75-.1-8.651-.1-3.75,0-4.95.1-6.15.1a.591.591,0,0,1-.65-.6c0-1.551,4.4.55,4.4-3.8Zm4.8,11.2H68.8c5.7,0,8.851-2.2,8.851-7.452,0-4.8-3.2-6.951-7.8-6.951h-4.5Zm0,.9V29.75c0,3.35,1.1,4.15,5.25,4.15,5.15,0,8.451-2,8.451-8.05C79.047,20.3,75.5,17.5,68.5,17.5Z"></path><path class="cls-2" d="M92.459,30.7c0,4.351,4.4,2.25,4.4,3.8a.59.59,0,0,1-.649.6c-1.2,0-2.4-.1-6.15-.1s-4.951.1-6.151.1a.59.59,0,0,1-.649-.6c0-1.551,4.4.55,4.4-3.8V5.4c0-4.35-4.4-2.25-4.4-3.8a.59.59,0,0,1,.649-.6c1.2,0,2.4.1,6.151.1,2.4,0,4.3-.1,6.4-.1,8.85,0,13,4.1,13,8.9,0,3.5-2.851,6.7-6.651,7.551a36.233,36.233,0,0,1-5.65.651v.1c5.25.449,7.35,1.55,9.25,5.2l3.65,7.05c2.351,4.6,5.75,2.851,5.75,4.051,0,.4-.1.6-.6.6-1.35,0-3.3-.1-5.151-.1h-2.9l-6.5-12.65c-1.5-2.952-3.6-3.851-6.9-3.851h-1.3Zm0-13.1H96.01c5.4,0,8.451-2.5,8.451-7.9,0-4.85-3.2-7.5-8.4-7.5h-3.6Z"></path><path class="cls-2" d="M116.474,21.6c0-.8,0-1.3.649-1.3.851,0,.75.95,1.351,3.8,1.75,8.3,5.8,10.5,9.5,10.5,4.5,0,7.9-2.6,7.9-7,0-11.651-19.1-6.051-19.1-18.7,0-5.05,4.9-8.6,9.9-8.6,4.6,0,7.4,1.9,8.351,1.9,1.5,0,.8-1.7,1.9-1.7.45,0,.649.35.7.9.9,10.051.9,10.6.9,11.051,0,.4-.05.85-.6.85s-.6-.35-1.25-2.45c-2.05-6.6-5.1-9.652-9.9-9.652a5.7,5.7,0,0,0-5.8,5.751c0,9.45,19.1,5.851,19.1,18.251,0,7.6-7.251,10.6-11.8,10.6-4.65,0-7.8-2.1-8.85-2.1-1.4,0-1.051,1.8-2.25,1.8-.35,0-.7-.4-.7-1.1Z"></path></g><g><path class="cls-2" d="M158.241,5.98a5.534,5.534,0,0,0-.5,1.758c0,1.061.979.991.979,1.192,0,.058-.024.093-.106.093-.426,0-.885-.023-1.346-.023s-.92.023-1.379.023c-.095,0-.13-.035-.13-.105s.046-.119.248-.166c.791-.177,1.333-1.18,1.757-2.288l1.5-3.88a.939.939,0,0,0,.082-.343c0-.247-.354-.306-.354-.4s.236-.106.778-.66.5-.7.6-.7c.059,0,.118.141.177.3l2.984,7.266c.389.943,1,.672,1,.885,0,.058-.035.093-.117.093-.543,0-1.11-.023-1.663-.023s-1.132.023-1.663.023c-.107,0-.142-.046-.142-.117,0-.236.825.024.825-.626a9.589,9.589,0,0,0-.849-2.3Zm2.571-.212-1.3-3.172-1.2,3.172Z"></path><path class="cls-2" d="M166.426,7.184c0,.943.377,1.333.731,1.486.33.141.637.023.637.225,0,.07-.024.128-.165.128-.4,0-.861-.023-1.345-.023s-.943.023-1.345.023c-.14,0-.165-.058-.165-.128,0-.2.307-.084.638-.225.354-.153.731-.543.731-1.486V2.029a1.469,1.469,0,0,0-1.1-.767c-.189-.024-.272-.024-.272-.153,0-.094.048-.13.142-.13.4,0,.838.024,1.273.024h1.322l4.222,5.308h.025V2.819c0-.943-.378-1.333-.733-1.486-.33-.142-.636-.023-.636-.224,0-.07.023-.13.166-.13.4,0,.86.024,1.343.024s.944-.024,1.345-.024c.142,0,.165.06.165.13,0,.2-.306.082-.637.224-.353.153-.731.543-.731,1.486V8.9c0,.223-.012.388-.106.388s-.188-.141-.295-.283l-5.19-6.6h-.023Z"></path><path class="cls-2" d="M175.432,5.98a5.511,5.511,0,0,0-.5,1.758c0,1.061.98.991.98,1.192,0,.058-.023.093-.106.093-.425,0-.885-.023-1.345-.023s-.92.023-1.38.023c-.095,0-.13-.035-.13-.105s.047-.119.248-.166c.79-.177,1.332-1.18,1.757-2.288l1.5-3.88a.9.9,0,0,0,.083-.343c0-.247-.354-.306-.354-.4s.236-.106.778-.66.5-.7.6-.7c.06,0,.119.141.178.3l2.984,7.266c.389.943,1,.672,1,.885,0,.058-.035.093-.117.093-.543,0-1.109-.023-1.664-.023s-1.132.023-1.662.023c-.107,0-.143-.046-.143-.117,0-.236.827.024.827-.626a9.621,9.621,0,0,0-.85-2.3ZM178,5.768l-1.3-3.172-1.2,3.172Z"></path><path class="cls-2" d="M183.158,1.947c0-.944-1.014-.484-1.014-.814,0-.094.047-.154.235-.154.6,0,1.168.024,1.64.024s1.038-.024,1.639-.024c.19,0,.236.06.236.154,0,.33-1.013-.13-1.013.814V7.915c0,.542.211.825.967.825a3.2,3.2,0,0,0,2.877-2.476c.072-.225.084-.33.189-.33a.113.113,0,0,1,.117.128,2.472,2.472,0,0,1-.047.343l-.519,2.618C187.227,9.012,185.658,9,184.019,9c-.472,0-1.039.023-1.64.023-.188,0-.235-.058-.235-.153,0-.33,1.014.13,1.014-.813Z"></path><path class="cls-2" d="M192.787,4.99l.92-1.629a3.053,3.053,0,0,0,.424-1.39c0-.791-.731-.673-.731-.862,0-.07.071-.13.237-.13.377,0,.66.024,1.131.024.367,0,.744-.024,1.1-.024A.116.116,0,0,1,196,1.1c0,.235-.555-.083-1.676,1.793l-1.392,2.323V8.057c0,.943,1.015.483,1.015.813,0,.1-.047.153-.236.153-.6,0-1.168-.023-1.639-.023s-1.039.023-1.64.023c-.19,0-.237-.058-.237-.153,0-.33,1.016.13,1.016-.813V5.438l-1.9-3.456c-.506-.931-1.166-.625-1.166-.873,0-.083.07-.13.2-.13.578,0,1.121.024,1.676.024s1.095-.024,1.65-.024c.178,0,.26.036.26.119,0,.248-.742-.036-.742.625a1.434,1.434,0,0,0,.21.66Z"></path><path class="cls-2" d="M196.1,5.662c0-.141.046-.178.117-.178.119,0,.119.178.166.426.283,1.5.873,3,2.593,3,1.2,0,1.889-.613,1.889-1.521,0-2.383-4.719-1.215-4.719-4.141a2.509,2.509,0,0,1,2.643-2.43,7.623,7.623,0,0,1,2.027.472c.414,0,.237-.331.45-.331.082,0,.128.036.14.213l.213,2.229c.023.224.035.331.035.39,0,.082-.035.117-.094.117-.119,0-.13-.248-.318-.718-.519-1.31-1.156-2.088-2.465-2.088-.838,0-1.5.365-1.5,1.261,0,1.935,4.789.862,4.789,4.058a2.886,2.886,0,0,1-3.1,2.772c-1.168,0-1.721-.543-2.182-.543s-.389.4-.59.4c-.058,0-.093-.024-.093-.106Z"></path><path class="cls-2" d="M203.664,1.947c0-.944-1.016-.484-1.016-.814,0-.094.047-.154.237-.154.6,0,1.168.024,1.638.024s1.039-.024,1.641-.024c.189,0,.236.06.236.154,0,.33-1.015-.13-1.015.814v6.11c0,.943,1.015.483,1.015.813,0,.1-.047.153-.236.153-.6,0-1.168-.023-1.641-.023s-1.037.023-1.638.023c-.19,0-.237-.058-.237-.153,0-.33,1.016.13,1.016-.813Z"></path><path class="cls-2" d="M207.219,5.662c0-.141.047-.178.119-.178.117,0,.117.178.164.426.283,1.5.873,3,2.6,3,1.2,0,1.886-.613,1.886-1.521,0-2.383-4.718-1.215-4.718-4.141a2.508,2.508,0,0,1,2.642-2.43,7.611,7.611,0,0,1,2.029.472c.413,0,.237-.331.448-.331.084,0,.131.036.142.213L212.74,3.4c.024.224.035.331.035.39,0,.082-.035.117-.095.117-.118,0-.129-.248-.319-.718-.517-1.31-1.156-2.088-2.465-2.088-.837,0-1.5.365-1.5,1.261,0,1.935,4.789.862,4.789,4.058a2.884,2.884,0,0,1-3.1,2.772c-1.168,0-1.723-.543-2.182-.543s-.39.4-.59.4c-.06,0-.095-.024-.095-.106Z"></path><path class="cls-2" d="M157.32,14.947c0-.944-1.013-.484-1.013-.814,0-.094.046-.153.236-.153.6,0,1.168.023,1.639.023s1.039-.023,1.64-.023c.188,0,.236.059.236.153,0,.33-1.015-.13-1.015.814v6.11c0,.943,1.015.483,1.015.813,0,.095-.048.153-.236.153-.6,0-1.168-.023-1.64-.023s-1.038.023-1.639.023c-.19,0-.236-.058-.236-.153,0-.33,1.013.13,1.013-.813Z"></path><path class="cls-2" d="M162.2,20.184c0,.943.377,1.333.731,1.486.33.14.636.023.636.225,0,.07-.023.128-.164.128-.4,0-.861-.023-1.345-.023s-.944.023-1.344.023c-.142,0-.166-.058-.166-.128,0-.2.307-.085.638-.225.353-.153.731-.543.731-1.486V15.029a1.472,1.472,0,0,0-1.1-.767c-.188-.024-.271-.024-.271-.153,0-.094.048-.129.142-.129.4,0,.837.023,1.274.023h1.32L167.5,19.31h.024V15.819c0-.943-.378-1.333-.731-1.486-.33-.142-.637-.023-.637-.224,0-.07.024-.129.165-.129.4,0,.86.023,1.345.023s.943-.023,1.344-.023c.142,0,.166.059.166.129,0,.2-.307.082-.637.224-.355.153-.733.543-.733,1.486V21.9c0,.223-.011.388-.1.388s-.188-.141-.3-.283l-5.189-6.6H162.2Z"></path><path class="cls-2" d="M169.608,18.662c0-.142.048-.178.119-.178.117,0,.117.178.165.426.283,1.5.872,3,2.594,3,1.2,0,1.887-.613,1.887-1.521,0-2.383-4.717-1.215-4.717-4.141a2.507,2.507,0,0,1,2.642-2.429,7.636,7.636,0,0,1,2.028.471c.413,0,.236-.331.449-.331.082,0,.129.036.141.213l.213,2.23c.023.223.035.329.035.389,0,.082-.035.117-.095.117-.118,0-.13-.248-.318-.719-.519-1.309-1.155-2.087-2.465-2.087-.837,0-1.5.365-1.5,1.261,0,1.935,4.788.862,4.788,4.058a2.885,2.885,0,0,1-3.1,2.773c-1.168,0-1.723-.543-2.182-.543s-.39.4-.59.4c-.059,0-.095-.024-.095-.106Z"></path><path class="cls-2" d="M177.17,14.947c0-.944-1.014-.484-1.014-.814,0-.094.047-.153.237-.153.6,0,1.167.023,1.638.023s1.039-.023,1.641-.023c.187,0,.235.059.235.153,0,.33-1.014-.13-1.014.814v6.11c0,.943,1.014.483,1.014.813,0,.095-.048.153-.235.153-.6,0-1.168-.023-1.641-.023s-1.037.023-1.638.023c-.19,0-.237-.058-.237-.153,0-.33,1.014.13,1.014-.813Z"></path><path class="cls-2" d="M187.488,21.316a4.862,4.862,0,0,1-2.76.874,4.192,4.192,0,1,1-.035-8.375,9.574,9.574,0,0,1,2.5.613c.5,0,.272-.543.483-.543.095,0,.142.047.142.13v3.126c0,.093-.058.14-.105.14-.19,0-.049-.222-.332-.99a2.8,2.8,0,0,0-2.653-2.193c-1.179,0-2.477.967-2.477,3.9s1.3,3.9,2.477,3.9a1.673,1.673,0,0,0,1.84-1.7v-.66c0-1.109-1.015-.649-1.015-.979,0-.1.049-.154.236-.154.6,0,1.168.024,1.592.024s.992-.024,1.594-.024c.187,0,.236.059.236.154,0,.33-1.016-.13-1.016.813V22h-.353Z"></path><path class="cls-2" d="M190.332,14.947c0-.944-1.014-.484-1.014-.814,0-.094.047-.153.237-.153.6,0,1.166.023,1.638.023s1.037-.023,1.639-.023c.189,0,.236.059.236.153,0,.33-1.013-.13-1.013.814V17.66h3.089V14.947c0-.944-1.013-.484-1.013-.814,0-.094.047-.153.234-.153.6,0,1.168.023,1.641.023s1.037-.023,1.638-.023c.19,0,.237.059.237.153,0,.33-1.014-.13-1.014.814v6.11c0,.943,1.014.483,1.014.813,0,.095-.047.153-.237.153-.6,0-1.167-.023-1.638-.023s-1.039.023-1.641.023c-.187,0-.234-.058-.234-.153,0-.33,1.013.13,1.013-.813V17.942h-3.089v3.115c0,.943,1.013.483,1.013.813,0,.095-.047.153-.236.153-.6,0-1.166-.023-1.639-.023s-1.037.023-1.638.023c-.19,0-.237-.058-.237-.153,0-.33,1.014.13,1.014-.813Z"></path><path class="cls-2" d="M201.066,14.286c-2.336.637-2.453,2.453-2.724,2.453-.059,0-.106-.035-.106-.118a3.787,3.787,0,0,1,.059-.424l.389-2.158c.035-.178.072-.224.13-.224a.274.274,0,0,1,.164.081.507.507,0,0,0,.307.107h5.285a.507.507,0,0,0,.307-.107.274.274,0,0,1,.164-.081c.061,0,.1.046.131.224l.388,2.158a3.554,3.554,0,0,1,.059.424c0,.083-.047.118-.1.118-.272,0-.389-1.816-2.725-2.453V20.82c0,.755.365.92.943.92.141,0,.213.035.213.155,0,.093-.058.128-.189.128-.672,0-1.274-.023-1.828-.023s-1.157.023-1.828.023c-.129,0-.19-.035-.19-.128,0-.12.072-.155.213-.155.578,0,.943-.165.943-.92Z"></path><path class="cls-2" d="M158.878,27.947c0-.944-1.015-.484-1.015-.814,0-.094.047-.154.237-.154.6,0,1.168.024,1.639.024s1.038-.024,1.64-.024c.188,0,.235.06.235.154,0,.33-1.014-.13-1.014.814v4.977a2.315,2.315,0,0,1-2.594,2.266c-1.393,0-2.171-.686-2.171-1.323a.872.872,0,0,1,.86-.92.721.721,0,0,1,.815.744c0,.295-.142.483-.142.754,0,.319.235.532.708.532s.8-.213.8-1.062Z"></path><path class="cls-2" d="M169,32.559a2.535,2.535,0,0,1-2.854,2.631c-1.84,0-3.02-.85-3.02-2.077V27.947c0-.944-1.014-.484-1.014-.814,0-.094.047-.154.236-.154.6,0,1.167.024,1.639.024s1.037-.024,1.639-.024c.189,0,.236.06.236.154,0,.33-1.013-.13-1.013.814v5.166a1.744,1.744,0,0,0,1.781,1.722,2,2,0,0,0,2.087-2.206V29.055c0-1.014-.378-1.592-.92-1.769-.177-.059-.355-.071-.355-.177,0-.07.025-.13.166-.13.307,0,.767.024,1.25.024s.944-.024,1.25-.024c.142,0,.166.06.166.13,0,.106-.177.118-.354.177-.542.177-.92.755-.92,1.769Z"></path><path class="cls-2" d="M171.787,27.947c0-.944-1.016-.484-1.016-.814,0-.094.048-.154.237-.154.6,0,1.168.024,1.639.024.685,0,1.263-.024,2-.024,2.843,0,4.436,1.84,4.436,4.035,0,2.523-1.533,4.009-3.751,4.009-.778,0-1.663-.023-2.69-.023-.471,0-1.038.023-1.639.023-.189,0-.237-.058-.237-.153,0-.33,1.016.13,1.016-.813Zm1.721,5.6c0,.849.519,1.191,1.392,1.191,1.392,0,2.395-1.144,2.395-3.562,0-2.547-1.074-3.916-2.772-3.916h-1.015Z"></path><path class="cls-2" d="M186.969,34.316a4.867,4.867,0,0,1-2.762.874,4.192,4.192,0,1,1-.035-8.375,9.62,9.62,0,0,1,2.5.613c.494,0,.271-.543.482-.543.1,0,.143.047.143.13v3.126a.126.126,0,0,1-.108.14c-.187,0-.047-.222-.33-.99a2.8,2.8,0,0,0-2.654-2.193c-1.179,0-2.477.967-2.477,3.9s1.3,3.9,2.477,3.9a1.674,1.674,0,0,0,1.842-1.7v-.66c0-1.109-1.016-.649-1.016-.979,0-.1.047-.154.236-.154.6,0,1.168.024,1.592.024s.992-.024,1.594-.024c.188,0,.234.059.234.154,0,.33-1.013-.13-1.013.813V35h-.354Z"></path><path class="cls-2" d="M189.812,27.947c0-.944-1.015-.484-1.015-.814,0-.094.047-.154.236-.154.6,0,1.168.024,1.639.024,1.463,0,2.855-.012,4.248-.024l.588,2.253a1.9,1.9,0,0,1,.072.307c0,.059-.035.094-.119.094-.106,0-.094-.2-.555-.967a2.811,2.811,0,0,0-2.736-1.4h-.637v3.4h.3A1.465,1.465,0,0,0,193.3,29.2c.011-.236.047-.295.166-.295.07,0,.117.059.117.164v3.61c0,.107-.047.166-.117.166-.119,0-.155-.059-.166-.3a1.468,1.468,0,0,0-1.475-1.6h-.3v2.973c0,.542.213.825.969.825a3.307,3.307,0,0,0,3.195-2.476c.071-.225.082-.33.19-.33a.113.113,0,0,1,.117.128,2.636,2.636,0,0,1-.047.343l-.52,2.618c-1.556-.011-3.125-.023-4.765-.023-.471,0-1.037.023-1.639.023-.189,0-.236-.058-.236-.153,0-.33,1.015.13,1.015-.813Z"></path><path class="cls-2" d="M201.543,32.617,203.832,27h.766c.472,0,1.039-.024,1.64-.024.188,0,.235.06.235.154,0,.33-1.014-.13-1.014.814v6.11c0,.943,1.014.483,1.014.813,0,.1-.047.153-.235.153-.6,0-1.168-.023-1.64-.023s-1.038.023-1.639.023c-.19,0-.236-.058-.236-.153,0-.33,1.013.13,1.013-.813V27.923h-.023l-2.83,7.042A.109.109,0,0,1,200.8,35a.14.14,0,0,1-.1-.035l-2.8-6.736h-.023v4.813c0,.991.306,1.38.625,1.546.425.222.648.082.648.282,0,.1-.058.153-.26.153-.3,0-.683-.023-1.154-.023s-.861.023-1.156.023c-.2,0-.26-.058-.26-.153,0-.2.225-.06.648-.282.319-.166.625-.555.625-1.546v-5.2a1.077,1.077,0,0,0-.978-.578c-.166-.012-.213-.059-.225-.141a.141.141,0,0,1,.155-.142c.435,0,.873.024,1.308.024h1.321Z"></path><path class="cls-2" d="M208.174,27.947c0-.944-1.014-.484-1.014-.814,0-.094.047-.154.236-.154.6,0,1.166.024,1.639.024,1.463,0,2.854-.012,4.246-.024l.59,2.253a2.03,2.03,0,0,1,.07.307c0,.059-.035.094-.117.094-.107,0-.094-.2-.555-.967a2.812,2.812,0,0,0-2.736-1.4H209.9v3.4h.3a1.465,1.465,0,0,0,1.475-1.463c.012-.236.047-.295.164-.295.07,0,.119.059.119.164v3.61c0,.107-.049.166-.119.166-.117,0-.152-.059-.164-.3a1.468,1.468,0,0,0-1.475-1.6h-.3v2.973c0,.542.213.825.967.825a3.312,3.312,0,0,0,3.2-2.476c.071-.225.083-.33.188-.33a.114.114,0,0,1,.119.128,2.245,2.245,0,0,1-.049.343l-.517,2.618c-1.557-.011-3.127-.023-4.766-.023-.473,0-1.037.023-1.639.023-.189,0-.236-.058-.236-.153,0-.33,1.014.13,1.014-.813Z"></path><path class="cls-2" d="M216.289,33.184c0,.943.377,1.333.73,1.486.333.14.639.023.639.225,0,.07-.025.128-.166.128-.4,0-.861-.023-1.344-.023s-.945.023-1.345.023c-.141,0-.164-.058-.164-.128,0-.2.306-.085.636-.225.354-.153.731-.543.731-1.486V28.029a1.469,1.469,0,0,0-1.1-.767c-.187-.024-.269-.024-.269-.153,0-.094.046-.13.14-.13.4,0,.838.024,1.274.024h1.322L221.6,32.31h.023V28.819c0-.943-.379-1.333-.732-1.486-.33-.142-.637-.023-.637-.224,0-.07.023-.13.166-.13.4,0,.861.024,1.344.024s.943-.024,1.345-.024c.141,0,.164.06.164.13,0,.2-.306.082-.636.224-.354.153-.731.543-.731,1.486V34.9c0,.223-.011.388-.107.388s-.188-.141-.295-.283l-5.19-6.6h-.023Z"></path><path class="cls-2" d="M226.269,27.286c-2.335.637-2.453,2.453-2.724,2.453a.1.1,0,0,1-.108-.118,3.49,3.49,0,0,1,.061-.424l.389-2.158c.035-.178.07-.224.129-.224a.28.28,0,0,1,.166.082.5.5,0,0,0,.306.106h5.283a.509.509,0,0,0,.307-.106.283.283,0,0,1,.166-.082c.059,0,.094.046.129.224l.391,2.158a3.7,3.7,0,0,1,.058.424c0,.083-.047.118-.107.118-.27,0-.389-1.816-2.725-2.453V33.82c0,.755.367.92.945.92.141,0,.211.035.211.155,0,.093-.058.128-.187.128-.674,0-1.275-.023-1.828-.023s-1.156.023-1.83.023c-.129,0-.188-.035-.188-.128,0-.12.071-.155.213-.155.576,0,.943-.165.943-.92Z"></path></g><path class="cls-2" d="M148,1h1V35h-1Z"></path><rect class="cls-3" width="234" height="36"></rect></svg>