<?xml version="1.0" encoding="UTF-8"?>
<svg xmlns="http://www.w3.org/2000/svg" width="145" height="32" version="1.1" viewBox="0 0 145 32">
  <defs>
    <style>
      .cls-1 {
        fill: #33b1f6;
      }

      .cls-2 {
        fill: #e8ebeb;
      }

      .cls-3 {
        fill: #fff;
      }

      .cls-4 {
        fill: #937fd4;
      }

      .cls-5 {
        fill: #3d474d;
      }

      .cls-6 {
        fill: #574696;
      }

      .cls-7 {
        fill: #8ed32a;
      }
    </style>
  </defs>
  <!-- Generator: Adobe Illustrator 28.7.8, SVG Export Plug-In . SVG Version: 1.2.0 Build 200)  -->
  <g>
    <g id="Layer_1">
      <g>
        <path class="cls-5" d="M40,22c-.9-.2-1.7-.6-2.2-1l.9-1.8c.5.4,1.2.7,2,.9s1.6.3,2.4.3c2,0,2.9-.6,2.9-1.7s0-.7-.4-.9c-.3-.2-.6-.4-1-.5s-1-.2-1.7-.3c-1-.2-1.8-.3-2.4-.5-.6-.2-1.2-.5-1.6-1-.5-.5-.7-1.1-.7-2s.5-2,1.4-2.7,2.2-1,3.7-1,1.6.1,2.5.3c.8.2,1.5.5,2,.8l-1,1.8c-1-.6-2.2-1-3.6-1s-1.7.2-2.2.5-.7.7-.7,1.2,0,.7.4.9c.3.2.6.4,1,.5s1,.2,1.7.4c1,.2,1.8.4,2.4.5.6.2,1.1.5,1.6,1,.4.5.7,1.1.7,1.9s-.5,2-1.4,2.6c-1,.7-2.5,1.1-4.1,1.1-1.1,0-1.5,0-2.6-.3Z"/>
        <path class="cls-5" d="M50.2,7.2c-.3-.3-.4-.6-.4-1s0-.7.4-1c.3-.4.6-.5,1.1-.5s.8,0,1.1.4.4.6.4,1,0,.8-.4,1.1c-.3.3-.6.4-1.1.4s-.8,0-1.1-.4ZM50.2,10h2.2v12.4h-2.2v-12.4Z"/>
        <path class="cls-5" d="M75.1,11.2c.9.9,1.4,2.2,1.4,4v7.2h-2.2v-6.9c0-1.2-.3-2.1-.8-2.7-.6-.6-1.3-.9-2.4-.9s-2,.4-2.7,1.1-1,1.7-1,3v6.4h-2.2v-6.9c0-1.2-.3-2.1-.8-2.7-.6-.6-1.3-.9-2.4-.9s-2,.4-2.7,1.1c-.7.7-1,1.7-1,3v6.4h-2.2v-12.4h1.9v1.8c.4-.6,1-1.1,1.8-1.4.7-.3,1.6-.5,2.5-.5s1.8.2,2.6.6c.7.4,1.3.9,1.7,1.7.5-.7,1.1-1.3,1.9-1.7s1.8-.6,2.8-.6c1.7-.1,2.9.4,3.8,1.3Z"/>
        <path class="cls-5" d="M89.5,10.6c.9.5,1.7,1.3,2.2,2.2s.8,2,.8,3.3-.3,2.3-.8,3.3c-.5.9-1.3,1.7-2.2,2.2-.9.5-2,.8-3.2.8s-1.7-.2-2.4-.5c-.7-.3-1.4-.8-1.9-1.5v6.4h-2.2V10h2.1v1.9c.5-.7,1.1-1.2,1.9-1.5s1.6-.5,2.5-.5c1.2,0,2.3.2,3.2.7ZM88.2,20c.6-.4,1.1-.9,1.5-1.5.4-.7.5-1.4.5-2.3s-.2-1.6-.5-2.3c-.4-.7-.9-1.2-1.5-1.5-.6-.4-1.3-.5-2.1-.5s-1.5,0-2.1.4c-.6.4-1.1.9-1.5,1.5s-.5,1.4-.5,2.2.2,1.6.5,2.3c.4.7.9,1.2,1.5,1.5.6.4,1.4.6,2.1.6.6.1,1.5-.1,2.1-.4Z"/>
        <path class="cls-5" d="M94.8,4.9h2.2v17.4h-2.2V4.9Z"/>
        <path class="cls-5" d="M111.6,16.9h-10.1c0,1.1.6,1.9,1.4,2.6s1.8,1,3,1,2.7-.5,3.6-1.5l1.2,1.4c-.6.6-1.3,1.1-2.1,1.5-.8.3-1.8.5-2.8.5s-2.5-.3-3.5-.8-1.8-1.3-2.3-2.2c-.6-1-.8-2-.8-3.2s.3-2.3.8-3.2c.5-1,1.3-1.7,2.2-2.2s2-.8,3.2-.8,2.2.3,3.2.8c.9.5,1.6,1.3,2.2,2.2.5,1,.8,2.1.8,3.3,0,.2,0,.3,0,.6ZM102.8,12.7c-.7.6-1.1,1.5-1.3,2.5h8c0-1-.5-1.9-1.3-2.5-.7-.7-1.6-1-2.7-1s-2,.3-2.7,1Z"/>
        <path class="cls-7" d="M118.7,16.6l-2.6,2.4v3.4h-2.2V4.9h2.2v11.1l6.8-6.2h2.7l-5.3,5.1,5.8,7.3h-2.7l-4.7-5.6Z"/>
        <path class="cls-7" d="M137.1,10.6c.9.5,1.7,1.3,2.2,2.2s.8,2,.8,3.3-.3,2.3-.8,3.3c-.5.9-1.3,1.7-2.2,2.2s-2,.8-3.2.8-1.7-.2-2.4-.5-1.4-.8-1.9-1.5v6.4h-2.2V10h2.1v1.9c.5-.7,1.1-1.2,1.9-1.5.8-.3,1.6-.5,2.5-.5,1.2,0,2.3.2,3.2.7ZM135.8,20c.6-.4,1.1-.9,1.5-1.5.4-.7.5-1.4.5-2.3s-.2-1.6-.5-2.3c-.4-.7-.9-1.2-1.5-1.5-.6-.4-1.3-.5-2.1-.5s-1.5.2-2.1.5c-.6.4-1.1.9-1.5,1.5s-.5,1.4-.5,2.2.2,1.6.5,2.3c.4.7.9,1.2,1.5,1.5.6.4,1.3.5,2.1.5.8.1,1.5-.1,2.1-.4Z"/>
        <path class="cls-7" d="M142.4,7.2c-.3-.3-.4-.6-.4-1s.1-.7.4-1c.3-.3.6-.4,1.1-.4s.8,0,1.1.4.4.6.4,1-.1.8-.4,1.1c-.3.3-.6.4-1.1.4-.4,0-.8-.2-1.1-.5ZM142.4,10h2.2v12.4h-2.2v-12.4Z"/>
      </g>
      <g>
        <path class="cls-3" d="M16,.8c-.4,0-.8,0-1.3.4L3.6,7.4c-.9.4-1.3,1.3-1.3,2.2v13.1c0,.9.5,1.7,1.3,2.2l11.4,6c.3.2.7.3,1.1.3h0c.4,0,.8,0,1.1-.3l11.3-6c.9-.5,1.3-1.3,1.3-2.2v-13.1c0-.9-.5-1.7-1.3-2.2L17.3,1c-.4-.2-.9-.3-1.3-.3"/>
        <path class="cls-2" d="M28.6,7.4L17.3,1c-.4-.2-.8-.3-1.3-.3v30.4c.4,0,.9,0,1.1-.3l11.3-6c.9-.5,1.3-1.3,1.3-2.2v-13.2c0-.9-.5-1.7-1.3-2.2h0Z"/>
        <path class="cls-4" d="M16,1.7h0c0,0,.2,0,.3,0l11.4,6.5c.3.2.4.3.4.6s0,.3-.4.7l-11.4,6.4c0,0-.2,0-.3,0"/>
        <path class="cls-6" d="M16,15.9c0,0-.2,0-.3,0l-11.4-6.4c-.4-.2-.4-.4-.4-.6s.2-.4.4-.6L15.8,1.7h.2"/>
        <path class="cls-1" d="M16.1,5.1c-4.2,0-7.6,2.3-9.7,5.5l8.9,5c.3.2.6.3.8.3h0c.3,0,.4,0,.8-.3l8.9-5c-1.6-3.2-5.5-5.5-9.7-5.5Z"/>
        <path class="cls-3" d="M16,8.3c-3,0-5.3,1.6-6.9,3.9l6.3,3.5c.2,0,.4.2.6.2h0c.2,0,.3,0,.6-.2l6.3-3.5c-1.1-2.2-3.9-3.9-6.9-3.9Z"/>
        <path class="cls-7" d="M16.1,12.1c-1.5,0-2.8.9-3.5,2l3.2,1.8c0,0,.2,0,.3,0h0c0,0,.2,0,.3,0l3.2-1.8c-.6-1.1-2-2-3.5-2Z"/>
      </g>
    </g>
  </g>
</svg>