<svg width="141" height="85" viewBox="0 0 141 85" fill="none" xmlns="http://www.w3.org/2000/svg">
<path d="M1 1H58.12C68.44 1 76.96 6.88 76.96 17.68C76.96 28.6 68.44 34.36 58.12 34.36H31.24V82H1V1ZM31.24 4.48V30.76H58.12C66.52 30.76 73.48 26.2 73.48 17.68C73.48 9.16 66.52 4.48 58.12 4.48H31.24ZM27.64 34.36H4.48V78.52H27.64V34.36ZM27.64 4.48H4.48V30.76H27.64V4.48Z" fill="white"/>
<path d="M107.689 1H139.609V47.68C139.609 67.48 128.449 83.68 107.689 83.68C90.8894 83.68 80.3294 73.12 76.9694 58.48L80.2094 56.92C83.0894 70.36 92.4494 80.32 107.689 80.32V1ZM136.129 4.48H111.169V80.2C127.489 78.4 136.129 64.36 136.129 47.68V4.48Z" fill="white"/>
<path d="M1 1H58.12C68.44 1 76.96 6.88 76.96 17.68C76.96 28.6 68.44 34.36 58.12 34.36H31.24V82H1V1ZM31.24 4.48V30.76H58.12C66.52 30.76 73.48 26.2 73.48 17.68C73.48 9.16 66.52 4.48 58.12 4.48H31.24ZM27.64 34.36H4.48V78.52H27.64V34.36ZM27.64 4.48H4.48V30.76H27.64V4.48Z" stroke="white" stroke-width="2"/>
<path d="M107.689 1H139.609V47.68C139.609 67.48 128.449 83.68 107.689 83.68C90.8894 83.68 80.3294 73.12 76.9694 58.48L80.2094 56.92C83.0894 70.36 92.4494 80.32 107.689 80.32V1ZM136.129 4.48H111.169V80.2C127.489 78.4 136.129 64.36 136.129 47.68V4.48Z" stroke="white" stroke-width="2"/>
</svg>
