<svg width="252" height="111" viewBox="0 0 252 111" fill="none" xmlns="http://www.w3.org/2000/svg">
<path d="M250.711 26.1345V73.3142C250.711 83.3029 247.896 92.4238 242.422 99.0573C236.938 105.702 228.814 109.814 218.291 109.814C209.78 109.814 202.821 107.137 197.563 102.583C192.31 98.0316 188.783 91.6309 187.084 84.2263L186.994 83.8376L187.354 83.6638L190.594 82.1042L191.167 81.8279L191.3 82.4499C192.722 89.0881 195.739 94.837 200.252 98.9236C204.659 102.914 210.519 105.343 217.791 105.449V26.1345H250.711ZM58.1201 26.1345C63.3701 26.1345 68.2008 27.6299 71.7285 30.5388C75.2671 33.4567 77.4599 37.7699 77.46 43.3142C77.46 48.9174 75.2682 53.2324 71.7275 56.1364C68.1987 59.0307 63.3677 60.4948 58.1201 60.4948H31.7402V108.134H0.5V26.1345H58.1201ZM126.352 2.44504L169.432 107.445L169.715 108.134H137.316L137.188 107.828L132.637 96.9743H91.3047L86.8721 107.824L86.7451 108.134H82.0635L82.3467 107.445L125.427 2.44504L125.889 1.31711L126.352 2.44504ZM222.271 105.269C230.014 104.27 235.942 100.438 239.966 94.862C244.092 89.1443 246.23 81.5723 246.23 73.3142V30.615H222.271V105.269ZM140.381 103.654H163.077L160.468 96.9743H137.562L140.381 103.654ZM4.98047 103.654H27.1396V60.4948H4.98047V103.654ZM114.55 40.9148L135.824 92.4948H158.384L125.888 13.4275L114.55 40.9148ZM93.2764 92.4948H130.901L112.089 46.904L93.2764 92.4948ZM31.7402 55.8943H58.1201C62.2356 55.8942 65.9577 54.7765 68.6396 52.657C71.3087 50.5476 72.9805 47.4225 72.9805 43.3142C72.9804 39.2054 71.3084 36.0494 68.6377 33.9099C65.9549 31.7608 62.2327 30.615 58.1201 30.615H31.7402V55.8943ZM4.98047 55.8943H27.1396V30.615H4.98047V55.8943Z" fill="white" stroke="white"/>
</svg>
