<svg width="84" height="100" viewBox="0 0 84 100" fill="none" xmlns="http://www.w3.org/2000/svg">
<path d="M0.152903 0.0481086C1.44538 0.0347685 2.73789 0.0252348 4.03042 0.0173191C5.11006 0.00874614 5.11006 0.00874615 6.21152 0C9.8502 0.0879126 12.9245 1.36323 16.2525 2.73138C16.7428 2.93286 17.2331 3.13434 17.7383 3.34193C21.4538 5.04151 24.5533 7.47943 27.6564 10.1104C28.0646 10.4459 28.4727 10.7814 28.8933 11.1271C36.3406 17.8296 40.3655 28.5178 41.0728 38.2847C41.1611 41.6607 41.1512 45.0357 41.1383 48.4125C41.1371 49.3815 41.1361 50.3504 41.1354 51.3194C41.1329 53.8503 41.1263 56.3812 41.1189 58.9121C41.112 61.5024 41.1089 64.0928 41.1056 66.6831C41.0984 71.7514 41.087 76.8197 41.0728 81.8879C39.6718 81.7887 38.271 81.6871 36.8702 81.5844C36.0901 81.5281 35.31 81.4718 34.5062 81.4137C23.5235 80.4111 14.5966 73.8818 7.69961 65.6206C3.04721 59.3514 -0.0265309 51.8149 0.000593681 43.9895C0.000397768 43.5112 0.000201849 43.0328 0 42.54C0.000926802 40.9756 0.011328 39.4115 0.0218843 37.8471C0.0243893 36.7559 0.0262978 35.6647 0.0276369 34.5735C0.0327375 31.7139 0.045899 28.8544 0.0607806 25.9949C0.074552 23.072 0.0806428 20.149 0.0873939 17.226C0.101744 11.5 0.124616 5.77407 0.152903 0.0481086Z" fill="#5977FF"/>
<path d="M83.2147 35.6393C82.2033 35.6288 81.1918 35.6213 80.1804 35.6151C79.3355 35.6083 79.3355 35.6083 78.4735 35.6015C75.6261 35.6706 73.2203 36.6735 70.616 37.7495C70.2323 37.9079 69.8486 38.0664 69.4533 38.2296C66.5457 39.5662 64.1202 41.4835 61.6919 43.5525C61.3725 43.8164 61.0531 44.0802 60.724 44.3521C54.8961 49.6231 51.7464 58.0285 51.1929 65.7095C51.1238 68.3644 51.1315 71.0186 51.1416 73.6742C51.1426 74.4362 51.1434 75.1982 51.1439 75.9602C51.1459 77.9506 51.151 79.9409 51.1569 81.9313C51.1623 83.9684 51.1646 86.0055 51.1673 88.0426C51.1729 92.0284 51.1818 96.0142 51.1929 100C52.2893 99.922 53.3855 99.8421 54.4816 99.7614C55.0921 99.7171 55.7026 99.6727 56.3316 99.6271C64.9261 98.8386 71.9118 93.7038 77.309 87.207C80.9498 82.2768 83.3551 76.3499 83.3339 70.1958C83.334 69.8196 83.3342 69.4435 83.3344 69.0559C83.3336 67.8257 83.3255 66.5956 83.3172 65.3653C83.3153 64.5072 83.3138 63.649 83.3127 62.7909C83.3087 60.542 83.2984 58.2933 83.2868 56.0445C83.276 53.7458 83.2712 51.4471 83.266 49.1484C83.2547 44.6453 83.2368 40.1423 83.2147 35.6393Z" fill="#C7D0F8"/>
<circle cx="63.2098" cy="17.4894" r="13.4164" fill="#C7D0F8"/>
</svg>
