<svg width="70" height="26" viewBox="0 0 70 26" fill="none" xmlns="http://www.w3.org/2000/svg">
<path d="M21.868 16.0923C20.8233 16.7143 19.49 17.1497 18.51 17.414C18.4897 15.8438 18.9797 14.3941 19.8323 13.5141C20.3999 12.9284 21.1029 12.6192 21.867 12.6192C23.0379 12.6192 23.4883 13.2469 23.5197 13.8355C23.575 14.6481 23.0188 15.4075 21.868 16.0923ZM28.367 22.8908C28.737 22.5058 28.8172 21.9268 28.5856 21.4457L28.281 20.8144C27.8243 19.8661 26.6431 19.543 25.7555 20.11C24.6694 20.8031 23.7089 21.0972 22.4529 21.2842C21.3198 21.4523 19.717 21.3738 19.1071 20.2482C20.4505 19.9548 22.5647 19.3094 24.603 18.1352C26.8648 16.833 27.9571 15.2852 27.8511 13.5337C27.7709 12.3381 27.1979 11.2404 26.2371 10.4427C25.0479 9.45442 23.6451 8.95375 21.4831 8.95375C19.3211 8.95375 17.7663 9.81872 16.4403 11.2395C14.5873 13.2236 13.8353 15.9465 13.9765 17.9689C14.2764 22.6171 17.5669 25.0746 21.6724 25.0746C24.7173 25.0746 27.206 24.1014 28.367 22.8927" fill="#B299FF"/>
<path d="M50.5792 21.4053C50.4187 21.4053 50.244 21.3165 50.0761 21.1483C49.6593 20.7308 49.2393 19.7696 49.2409 18.5609C49.2336 16.2181 49.7246 14.5339 50.701 13.5549C51.3208 12.9337 52.1138 12.618 53.0585 12.618C53.6714 12.618 54.2147 12.8254 54.5893 13.2009C55.0258 13.639 55.2447 14.2938 55.2408 15.1457V15.1476C55.2629 17.1055 53.2673 19.2764 52.6552 19.8947C51.6846 20.8755 50.8615 21.4053 50.5792 21.4053ZM59.7571 21.7144L59.7764 14.716C59.7791 13.1804 59.2401 11.8258 58.2158 10.8011C57.0079 9.59143 55.2308 8.95157 53.077 8.95157C50.7431 8.95157 48.6226 9.78854 47.1077 11.3083C45.3978 13.0224 44.5 15.5306 44.5108 18.5599C44.5035 19.6575 44.9029 21.8816 46.4693 23.4566C47.3579 24.3504 48.4734 24.8035 49.7857 24.8035C51.6441 24.8035 53.8751 23.0296 55.2695 21.027L55.252 22.485C55.2768 24.0937 55.7934 24.8046 57.4518 24.8046H58.753C59.3167 24.8046 59.7734 24.3458 59.7698 23.7817L59.7571 21.7144Z" fill="#B299FF"/>
<path d="M67.8694 5.8315C67.9042 5.64004 67.8451 5.45133 67.7078 5.31404L64.1072 1.716C63.9699 1.57869 63.7805 1.51985 63.5886 1.55441C63.3968 1.5899 63.2418 1.71133 63.1613 1.8888L60.2181 8.42915C60.1163 8.65612 60.162 8.90553 60.3379 9.08112C60.4497 9.19231 60.5946 9.25393 60.7466 9.25393C60.8298 9.25393 60.9117 9.23617 60.9902 9.2007L67.5341 6.25932C67.7125 6.17897 67.8342 6.02299 67.8694 5.8315Z" fill="#B299FF"/>
<path d="M58.0142 7.3002C58.126 7.45432 58.2965 7.54306 58.4822 7.54306C58.5339 7.54306 58.5865 7.5356 58.6387 7.52248C58.8789 7.45807 59.0439 7.26468 59.0679 7.02372L59.9955 0.643086C60.0148 0.449735 59.941 0.26572 59.7932 0.139621C59.6448 0.0135216 59.4519 -0.0294455 59.2635 0.0200602L54.3456 1.33709C54.1572 1.38754 54.0126 1.52204 53.9469 1.70512C53.8815 1.8882 53.9101 2.08435 54.0273 2.24687L58.0154 7.3002H58.0142Z" fill="#B299FF"/>
<path d="M69.069 9.68502C68.9425 9.53743 68.7589 9.46362 68.5598 9.48327L62.1875 10.4089C61.94 10.4342 61.7463 10.5985 61.6824 10.8386C61.6179 11.0787 61.7029 11.3168 61.9006 11.4597L66.9651 15.4519C67.066 15.5247 67.1827 15.5631 67.3046 15.5631C67.3723 15.5631 67.4387 15.5519 67.5021 15.5285C67.6858 15.4632 67.8196 15.3184 67.8703 15.1297L69.1881 10.2146C69.2387 10.0269 69.1943 9.83353 69.069 9.68502Z" fill="#B299FF"/>
<path d="M11.3084 24.7267H13.2351C13.8017 24.7267 14.1385 24.0933 13.8211 23.6243L8.9065 16.356L13.1641 10.7448C13.5748 10.203 13.1881 9.42577 12.5081 9.4267H12.3263C12.3263 9.4267 10.9559 9.4426 10.4346 9.49954C9.54596 9.59673 8.69796 9.92366 8.16274 10.6392L4.48279 15.5629V4.4245C4.48279 3.70711 3.9005 3.12608 3.18261 3.12608H1.90919C0.938449 3.12608 0.148569 3.9154 0.148569 4.88409L0 23.4272C0 24.1438 0.583187 24.7267 1.30017 24.7267H2.73599C3.70027 24.7267 4.48279 23.9447 4.48279 22.9816V17.1678L8.49585 23.2189C9.12059 24.1616 10.1762 24.7275 11.3075 24.7275" fill="#B299FF"/>
<path d="M41.7276 24.7267H43.6544C44.2209 24.7267 44.5577 24.0933 44.2402 23.6243L39.3257 16.356L43.5833 10.7448C43.994 10.203 43.6073 9.42577 42.9271 9.4267H42.7454C42.7454 9.4267 41.375 9.4426 40.8538 9.49954C39.9652 9.59673 39.1181 9.92366 38.5819 10.6392L34.9019 15.5629V4.4245C34.9019 3.70711 34.3198 3.12608 33.6019 3.12608H32.3284C31.3578 3.12608 30.5678 3.9154 30.5678 4.88409L30.4192 23.4272C30.4192 24.1438 31.0024 24.7267 31.7193 24.7267H33.1551C34.1195 24.7267 34.9019 23.9447 34.9019 22.9816V17.1678L38.9151 23.2189C39.5399 24.1616 40.5962 24.7267 41.7276 24.7267Z" fill="#B299FF"/>
</svg>
