<svg width="1600" height="700" viewBox="0 0 1600 700" fill="none" xmlns="http://www.w3.org/2000/svg">
<g clip-path="url(#clip0_531_15220)">
<rect width="1600" height="700" fill="#4D37D6" fill-opacity="0.7"/>
<g filter="url(#filter0_i_531_15220)">
<path d="M802 -449.294L1.99998 349.598M802 -368.598L82.808 349.598M4.36677 263.195L723.559 -455M802 -287.902L163.616 349.598M4.36677 182.499L642.751 -455M802 -207.206L244.424 349.598M4.36677 101.803L561.943 -455M802 -126.509L325.232 349.598M4.36677 21.1071L481.134 -455M802 -45.8134L406.04 349.598M4.36677 -59.5891L400.326 -455M802 34.8828L486.848 349.598M4.36677 -140.285L319.518 -455M802 115.579L567.657 349.598M4.36677 -220.981L238.71 -455M802 196.275L648.465 349.598M4.36677 -301.677L157.902 -455M802 276.971L729.273 349.598M4.36677 -382.374L77.094 -455" stroke="#4D37D6" stroke-opacity="0.2" stroke-width="3"/>
<path d="M800 -449.294L1600 349.598M800 -368.598L1519.19 349.598M1597.63 263.195L878.441 -455M800 -287.902L1438.38 349.598M1597.63 182.499L959.249 -455M800 -207.206L1357.58 349.598M1597.63 101.803L1040.06 -455M800 -126.509L1276.77 349.598M1597.63 21.1071L1120.87 -455M800 -45.8134L1195.96 349.598M1597.63 -59.5891L1201.67 -455M800 34.8828L1115.15 349.598M1597.63 -140.285L1282.48 -455M800 115.579L1034.34 349.598M1597.63 -220.981L1363.29 -455M800 196.275L953.535 349.598M1597.63 -301.677L1444.1 -455M800 276.971L872.727 349.598M1597.63 -382.374L1524.91 -455" stroke="#4D37D6" stroke-opacity="0.2" stroke-width="3"/>
<path d="M800 1146.89L1600 348M800 1066.2L1519.19 348M1597.63 434.402L878.441 1152.6M800 985.499L1438.38 348M1597.63 515.098L959.249 1152.6M800 904.803L1357.58 348M1597.63 595.794L1040.06 1152.6M800 824.107L1276.77 348M1597.63 676.491L1120.87 1152.6M800 743.411L1195.96 348M1597.63 757.187L1201.67 1152.6M800 662.715L1115.15 348M1597.63 837.883L1282.48 1152.6M800 582.019L1034.34 348M1597.63 918.579L1363.29 1152.6M800 501.323L953.535 348M1597.63 999.275L1444.1 1152.6M800 420.627L872.727 348M1597.63 1079.97L1524.91 1152.6" stroke="#4D37D6" stroke-opacity="0.2" stroke-width="3"/>
<path d="M802 1146.89L1.99998 348M802 1066.2L82.808 348M4.36677 434.402L723.559 1152.6M802 985.499L163.616 348M4.36677 515.098L642.751 1152.6M802 904.803L244.424 348M4.36677 595.794L561.943 1152.6M802 824.107L325.232 348M4.36677 676.491L481.134 1152.6M802 743.411L406.04 348M4.36677 757.187L400.326 1152.6M802 662.715L486.848 348M4.36677 837.883L319.518 1152.6M802 582.019L567.657 348M4.36677 918.579L238.71 1152.6M802 501.323L648.465 348M4.36677 999.275L157.902 1152.6M802 420.627L729.273 348M4.36677 1079.97L77.094 1152.6" stroke="#4D37D6" stroke-opacity="0.2" stroke-width="3"/>
</g>
</g>
<defs>
<filter id="filter0_i_531_15220" x="0.939941" y="-456.062" width="1606.12" height="1619.72" filterUnits="userSpaceOnUse" color-interpolation-filters="sRGB">
<feFlood flood-opacity="0" result="BackgroundImageFix"/>
<feBlend mode="normal" in="SourceGraphic" in2="BackgroundImageFix" result="shape"/>
<feColorMatrix in="SourceAlpha" type="matrix" values="0 0 0 0 0 0 0 0 0 0 0 0 0 0 0 0 0 0 127 0" result="hardAlpha"/>
<feOffset dx="6" dy="10"/>
<feGaussianBlur stdDeviation="6"/>
<feComposite in2="hardAlpha" operator="arithmetic" k2="-1" k3="1"/>
<feColorMatrix type="matrix" values="0 0 0 0 0.301961 0 0 0 0 0.215686 0 0 0 0 0.839216 0 0 0 0.2 0"/>
<feBlend mode="normal" in2="shape" result="effect1_innerShadow_531_15220"/>
</filter>
<clipPath id="clip0_531_15220">
<rect width="1600" height="700" fill="white"/>
</clipPath>
</defs>
</svg>
