<svg width="239" height="238" viewBox="0 0 239 238" fill="none" xmlns="http://www.w3.org/2000/svg">
<circle cx="120" cy="119" r="72.5" stroke="#744D82" stroke-width="5"/>
<path d="M81.5 56.5L120 3.5M120 3.5L158 56.5M120 3.5V45.5M120 16L125 10.5M120 24L128 15M120 33L131.5 19.5M120 43L135 25M126 46L139 30M131 49L143 35M138 50L146 40M143 52L149 44M148 53L152 48" stroke="#744D82" stroke-width="4"/>
<path d="M81 181L119.5 234M119.5 234L157.5 181M119.5 234V192M119.5 221.5L124.5 227M119.5 213.5L127.5 222.5M119.5 204.5L131 218M119.5 194.5L134.5 212.5M125.5 191.5L138.5 207.5M130.5 188.5L142.5 202.5M137.5 187.5L145.5 197.5M142.5 185.5L148.5 193.5M147.5 184.5L151.5 189.5" stroke="#744D82" stroke-width="4"/>
<path d="M182.621 81L235.307 119.929M235.307 119.929L182 157.497M235.307 119.929L193.308 119.588M222.807 119.828L228.266 124.872M214.807 119.763L223.742 127.835M205.808 119.69L219.214 131.299M195.808 119.608L213.686 134.754M192.76 125.584L208.653 138.713M189.719 130.559L203.621 142.673M188.662 137.551L198.597 145.632M186.622 142.535L194.573 148.599M185.581 147.526L190.548 151.567" stroke="#744D82" stroke-width="4"/>
<path d="M56.9983 81L4.31262 119.929M4.31262 119.929L57.6194 157.497M4.31262 119.929L46.3112 119.588M16.8122 119.828L11.353 124.872M24.8119 119.763L15.8772 127.835M33.8117 119.69L20.4055 131.299M43.8113 119.608L25.9337 134.754M46.8599 125.584L30.966 138.713M49.9004 130.559L35.9983 142.673M50.9573 137.551L41.0225 145.632M52.9978 142.535L45.0468 148.599M54.0384 147.526L49.071 151.567" stroke="#744D82" stroke-width="4"/>
<path d="M123.509 103.371C124.284 105.332 124.672 107.452 124.672 109.732C124.672 112.149 124.261 114.36 123.44 116.367C122.62 118.373 121.434 120.083 119.884 121.497C118.379 122.865 116.373 123.982 113.865 124.848C111.585 125.623 108.78 126.011 105.451 126.011H99.3639V136.681L101.416 137.023C101.644 137.069 101.826 137.114 101.963 137.16C102.145 137.206 102.305 137.228 102.442 137.228L102.852 137.297C103.992 137.57 104.562 138.277 104.562 139.417V143.453H85V139.417C85 138.277 85.57 137.57 86.71 137.297L87.1204 137.228L88.1464 137.023L90.1984 136.681V100.772L88.1464 100.43C87.9184 100.384 87.7132 100.338 87.5308 100.293C87.394 100.247 87.2572 100.224 87.1204 100.224L86.71 100.156C85.57 99.8824 85 99.1756 85 98.0356V94H105.451C108.735 94 111.607 94.3876 114.07 95.1628C116.35 95.8924 118.333 96.9868 120.021 98.446C121.571 99.814 122.734 101.456 123.509 103.371ZM114.822 113.562C115.233 112.468 115.438 111.191 115.438 109.732C115.438 108.455 115.233 107.269 114.822 106.175C114.412 105.126 113.796 104.214 112.975 103.439C112.2 102.71 111.174 102.14 109.897 101.729C108.666 101.319 107.184 101.114 105.451 101.114H99.3639V118.829H105.451C107.184 118.829 108.666 118.624 109.897 118.213C111.174 117.757 112.2 117.165 112.975 116.435C113.796 115.705 114.412 114.748 114.822 113.562Z" fill="#744D82"/>
<path d="M155.604 98.0356C155.604 99.1756 155.034 99.8824 153.894 100.156L153.484 100.224C153.347 100.224 153.187 100.247 153.005 100.293C152.868 100.338 152.686 100.384 152.458 100.43L150.406 100.772V125.874C150.406 128.61 150.064 131.118 149.38 133.398C148.696 135.678 147.693 137.57 146.37 139.075C144.957 140.671 143.247 141.88 141.24 142.7C139.097 143.567 136.749 144 134.195 144C132.964 144 131.756 143.932 130.57 143.795C129.476 143.658 128.222 143.407 126.808 143.042L127.287 137.57C127.332 137.16 127.538 136.772 127.902 136.408C128.313 136.088 128.792 135.929 129.339 135.929C129.704 135.929 130.205 135.997 130.844 136.134C131.664 136.316 132.462 136.408 133.238 136.408C134.606 136.408 135.746 136.225 136.658 135.86C137.57 135.541 138.413 134.926 139.188 134.014C139.827 133.238 140.328 132.19 140.693 130.867C141.058 129.499 141.24 127.903 141.24 126.079V100.772L139.052 100.43C138.778 100.384 138.527 100.338 138.299 100.293C138.071 100.247 137.889 100.224 137.752 100.224L137.136 100.156C135.996 99.8824 135.426 99.1756 135.426 98.0356V94H155.604V98.0356Z" fill="#744D82"/>
</svg>
