<svg width="415" height="80" viewBox="0 0 415 80" fill="none" xmlns="http://www.w3.org/2000/svg">
<path d="M24.4769 55V25.1543H36.1167C38.7317 25.1543 40.963 25.5665 42.8106 26.3908C44.6582 27.2151 46.0794 28.4089 47.0743 29.9723C48.0691 31.5356 48.5666 33.3974 48.5666 35.5577C48.5666 37.7179 48.0691 39.5797 47.0743 41.1431C46.0794 42.678 44.6582 43.8718 42.8106 44.7246C40.963 45.5489 38.7317 45.961 36.1167 45.961H26.8219L28.7405 43.9571V55H24.4769ZM28.7405 44.3835L26.8219 42.2516H35.9888C38.7175 42.2516 40.7783 41.6689 42.1711 40.5035C43.5923 39.3381 44.3029 37.6895 44.3029 35.5577C44.3029 33.4258 43.5923 31.7772 42.1711 30.6118C40.7783 29.4464 38.7175 28.8637 35.9888 28.8637H26.8219L28.7405 26.7319V44.3835ZM55.6832 55V25.1543H67.323C69.9381 25.1543 72.1694 25.5665 74.017 26.3908C75.8646 27.2151 77.2858 28.4089 78.2807 29.9723C79.2755 31.5356 79.7729 33.3974 79.7729 35.5577C79.7729 37.7179 79.2755 39.5797 78.2807 41.1431C77.2858 42.678 75.8646 43.8576 74.017 44.6819C72.1694 45.5062 69.9381 45.9184 67.323 45.9184H58.0282L59.9469 43.9571V55H55.6832ZM75.6372 55L68.0479 44.1703H72.61L80.2846 55H75.6372ZM59.9469 44.3835L58.0282 42.2943H67.1951C69.9239 42.2943 71.9846 41.7116 73.3774 40.5462C74.7987 39.3523 75.5093 37.6895 75.5093 35.5577C75.5093 33.4258 74.7987 31.7772 73.3774 30.6118C71.9846 29.4464 69.9239 28.8637 67.1951 28.8637H58.0282L59.9469 26.7319V44.3835ZM82.9947 55L96.5105 25.1543H100.732L114.29 55H109.813L97.747 27.542H99.4524L87.3863 55H82.9947ZM88.7506 47.5386L89.9018 44.1276H106.701L107.937 47.5386H88.7506ZM140.999 25.1543H145.262V55H140.999V25.1543ZM123.859 55H119.595V25.1543H123.859V55ZM141.382 41.6974H123.432V37.988H141.382V41.6974ZM155.048 55V25.1543H159.312V51.2906H175.471V55H155.048ZM176.697 55L190.213 25.1543H194.434L207.992 55H203.516L191.449 27.542H193.155L181.089 55H176.697ZM182.453 47.5386L183.604 44.1276H200.403L201.64 47.5386H182.453ZM213.297 55V25.1543H225.875C229.059 25.1543 231.858 25.7797 234.275 27.0303C236.719 28.281 238.609 30.0291 239.945 32.2747C241.31 34.5202 241.992 37.121 241.992 40.0772C241.992 43.0333 241.31 45.6341 239.945 47.8797C238.609 50.1252 236.719 51.8733 234.275 53.124C231.858 54.3747 229.059 55 225.875 55H213.297ZM217.561 51.2906H225.619C228.092 51.2906 230.224 50.8216 232.015 49.8836C233.834 48.9456 235.241 47.6381 236.236 45.961C237.231 44.2556 237.728 42.2943 237.728 40.0772C237.728 37.8316 237.231 35.8703 236.236 34.1933C235.241 32.5163 233.834 31.2087 232.015 30.2707C230.224 29.3327 228.092 28.8637 225.619 28.8637H217.561V51.2906Z" fill="#0C0E13"/>
<path d="M265.949 55.5116C263.931 55.5116 262.069 55.1421 260.364 54.4031C258.687 53.6356 257.308 52.5555 256.228 51.1627L260.065 46.5579C260.889 47.6381 261.756 48.4624 262.666 49.0309C263.576 49.5709 264.556 49.841 265.608 49.841C268.422 49.841 269.829 48.1923 269.829 44.8951V30.6971H259.34V25.1543H276.693V44.5114C276.693 48.2066 275.784 50.9637 273.965 52.7829C272.145 54.6021 269.474 55.5116 265.949 55.5116ZM298.865 55.5116C296.506 55.5116 294.317 55.1279 292.299 54.3604C290.309 53.593 288.575 52.5129 287.097 51.1201C285.648 49.7273 284.511 48.0929 283.686 46.2168C282.891 44.3408 282.493 42.2943 282.493 40.0772C282.493 37.8601 282.891 35.8135 283.686 33.9375C284.511 32.0615 285.662 30.4271 287.14 29.0343C288.618 27.6415 290.352 26.5613 292.342 25.7939C294.331 25.0264 296.492 24.6427 298.823 24.6427C301.182 24.6427 303.342 25.0264 305.303 25.7939C307.293 26.5613 309.013 27.6415 310.462 29.0343C311.94 30.4271 313.092 32.0615 313.916 33.9375C314.74 35.7851 315.152 37.8316 315.152 40.0772C315.152 42.2943 314.74 44.355 313.916 46.2595C313.092 48.1355 311.94 49.7699 310.462 51.1627C309.013 52.5271 307.293 53.593 305.303 54.3604C303.342 55.1279 301.196 55.5116 298.865 55.5116ZM298.823 49.6278C300.158 49.6278 301.381 49.4004 302.489 48.9456C303.626 48.4908 304.621 47.837 305.474 46.9843C306.327 46.1316 306.98 45.1225 307.435 43.9571C307.918 42.7917 308.16 41.4984 308.16 40.0772C308.16 38.6559 307.918 37.3626 307.435 36.1972C306.98 35.0318 306.327 34.0228 305.474 33.17C304.65 32.3173 303.669 31.6635 302.532 31.2087C301.395 30.7539 300.158 30.5266 298.823 30.5266C297.487 30.5266 296.25 30.7539 295.113 31.2087C294.005 31.6635 293.024 32.3173 292.171 33.17C291.318 34.0228 290.65 35.0318 290.167 36.1972C289.712 37.3626 289.485 38.6559 289.485 40.0772C289.485 41.47 289.712 42.7633 290.167 43.9571C290.65 45.1225 291.304 46.1316 292.129 46.9843C292.981 47.837 293.976 48.4908 295.113 48.9456C296.25 49.4004 297.487 49.6278 298.823 49.6278ZM331.003 55.5116C328.615 55.5116 326.327 55.199 324.138 54.5736C321.949 53.9199 320.187 53.0813 318.851 52.0581L321.196 46.8564C322.475 47.766 323.982 48.5192 325.716 49.1161C327.478 49.6846 329.254 49.9689 331.045 49.9689C332.41 49.9689 333.504 49.841 334.328 49.5851C335.181 49.3009 335.806 48.9172 336.204 48.434C336.602 47.9507 336.801 47.3965 336.801 46.7711C336.801 45.9752 336.488 45.3499 335.863 44.8951C335.238 44.4119 334.413 44.0282 333.39 43.7439C332.367 43.4313 331.23 43.147 329.979 42.8912C328.757 42.6069 327.521 42.2658 326.27 41.8679C325.048 41.47 323.925 40.9583 322.902 40.333C321.878 39.7076 321.04 38.8833 320.386 37.8601C319.761 36.8368 319.448 35.5293 319.448 33.9375C319.448 32.232 319.903 30.6829 320.812 29.2901C321.75 27.8689 323.143 26.7461 324.991 25.9218C326.867 25.0691 329.212 24.6427 332.026 24.6427C333.902 24.6427 335.749 24.8701 337.569 25.3249C339.388 25.7512 340.994 26.405 342.387 27.2862L340.255 32.5305C338.862 31.7346 337.469 31.1519 336.076 30.7824C334.684 30.3844 333.319 30.1855 331.983 30.1855C330.647 30.1855 329.553 30.3418 328.7 30.6545C327.847 30.9671 327.236 31.3793 326.867 31.8909C326.497 32.3741 326.313 32.9426 326.313 33.5964C326.313 34.3639 326.625 34.9892 327.251 35.4724C327.876 35.9272 328.7 36.2967 329.723 36.581C330.747 36.8652 331.869 37.1494 333.092 37.4337C334.342 37.7179 335.579 38.0448 336.801 38.4143C338.052 38.7839 339.189 39.2813 340.212 39.9066C341.235 40.532 342.06 41.3563 342.685 42.3795C343.339 43.4028 343.666 44.6961 343.666 46.2595C343.666 47.9365 343.197 49.4714 342.259 50.8642C341.321 52.257 339.914 53.3798 338.038 54.2325C336.19 55.0853 333.845 55.5116 331.003 55.5116ZM369.704 25.1543H376.611V55H369.704V25.1543ZM356.145 55H349.238V25.1543H356.145V55ZM370.215 42.7633H355.634V36.9221H370.215V42.7633ZM384.525 55V25.1543H391.432V55H384.525Z" fill="#3821D1"/>
<path d="M5 40C5 38.6193 3.88071 37.5 2.5 37.5C1.11929 37.5 0 38.6193 0 40H5ZM40 80C41.3807 80 42.5 78.8807 42.5 77.5C42.5 76.1193 41.3807 75 40 75L40 80ZM0 40V80H5V40H0ZM2.38419e-07 80L40 80L40 75L-2.38419e-07 75L2.38419e-07 80Z" fill="#3821D1"/>
<path d="M410 40C410 41.3807 411.119 42.5 412.5 42.5C413.881 42.5 415 41.3807 415 40H410ZM375 3.8147e-06C373.619 3.94637e-06 372.5 1.11929 372.5 2.5C372.5 3.88072 373.619 5 375 5L375 3.8147e-06ZM415 40V0H410V40H415ZM415 0L375 3.8147e-06L375 5L415 5L415 0Z" fill="#0C0E13"/>
</svg>
