<svg width="226" height="201" viewBox="0 0 226 201" fill="none" xmlns="http://www.w3.org/2000/svg">
<path d="M217.584 97.8736L182.995 178.059C180.249 184.426 174.315 188.843 167.428 189.648L80.6907 199.786C73.8041 200.591 67.0107 197.66 62.8707 192.099L10.7214 122.052C6.58139 116.49 5.72271 109.142 8.46938 102.775L43.0574 22.5895C45.8041 16.2229 51.7387 11.8055 58.6254 11.0002L145.361 0.86288C152.248 0.0575469 159.041 2.9869 163.183 8.54823L215.331 78.5962C219.471 84.1589 220.329 91.5056 217.584 97.8736ZM222.337 89.6575L176.92 10.9909C173.109 4.38954 166.067 0.324208 158.444 0.324208H67.608C59.9867 0.324208 52.944 4.38954 49.1334 10.9909L3.71469 89.6575C-0.0959772 96.2589 -0.0959772 104.391 3.71469 110.991L49.1334 189.658C52.944 196.258 59.9867 200.324 67.608 200.324H158.444C166.067 200.324 173.109 196.258 176.92 189.658L222.337 110.991C226.149 104.391 226.149 96.2589 222.337 89.6575Z" fill="#2F80EB"/>
<path d="M203.812 75.5593L189.867 154.65C188.901 160.122 185.091 164.665 179.868 166.566L104.401 194.034C99.1787 195.934 93.3387 194.905 89.0813 191.333L27.5601 139.71C23.3027 136.138 21.2747 130.566 22.24 125.093L36.1854 46.0019C37.1507 40.5286 40.9627 35.9872 46.1854 34.0859L121.652 6.61791C126.873 4.71791 132.713 5.74728 136.971 9.31928L198.492 60.9419C202.749 64.5139 204.777 70.0859 203.812 75.5593ZM149.781 8.03126C145.496 3.48859 139.112 1.57791 133.035 3.01791L51.4747 22.3486C45.3974 23.7886 40.5507 28.3606 38.7587 34.3446L14.72 114.642C12.928 120.626 14.4653 127.11 18.7507 131.653L76.2707 192.621C80.5573 197.163 86.9414 199.074 93.0187 197.634L174.577 178.303C180.655 176.863 185.503 172.29 187.293 166.307L211.333 86.0099C213.124 80.0273 211.587 73.5419 207.301 68.9993L149.781 8.03126Z" fill="#2F80EB"/>
<path d="M184.955 142.996L123.719 183.271C120.225 185.568 115.772 185.828 112.035 183.952L46.5386 151.058C42.8026 149.182 40.3505 145.454 40.1065 141.28L35.8452 68.111C35.6025 63.9377 37.6053 59.9496 41.0986 57.6523L102.333 17.3777C105.827 15.0803 110.281 14.8203 114.017 16.6963L179.513 49.591C183.251 51.467 185.703 55.195 185.945 59.3683L190.207 132.538C190.449 136.712 188.448 140.699 184.955 142.996ZM189.148 54.4683L124.981 12.2657C120.913 9.58965 115.727 9.28696 111.375 11.4723L42.7425 45.9417C38.3905 48.127 35.5359 52.4683 35.2532 57.3283L30.7879 134C30.5039 138.862 32.8359 143.504 36.9039 146.18L101.071 188.383C105.14 191.059 110.327 191.36 114.677 189.175L183.309 154.707C187.661 152.522 190.516 148.18 190.8 143.32L195.265 66.6483C195.548 61.787 193.216 57.1443 189.148 54.4683Z" fill="#2F80EB"/>
<path d="M183.226 120.999L137.745 169.205C135.82 171.247 132.953 172.104 130.224 171.457L65.7344 156.173C63.0051 155.527 60.8278 153.473 60.0238 150.785L41.0158 87.2946C40.2105 84.6066 40.9012 81.6946 42.8265 79.6546L88.3064 31.4479C90.2318 29.4066 93.0998 28.5492 95.8292 29.1959L160.317 44.4799C163.048 45.1266 165.224 47.1799 166.029 49.8679L185.037 113.359C185.841 116.047 185.15 118.959 183.226 120.999ZM169.828 46.2826L104.252 22.4146C100.97 21.2199 97.2998 21.8679 94.6238 24.1133L41.1652 68.9692C38.4892 71.2146 37.2145 74.7172 37.8212 78.1572L49.9398 146.881C50.5464 150.321 52.9412 153.176 56.2238 154.371L121.8 178.239C125.082 179.433 128.753 178.785 131.429 176.54L184.886 131.684C187.562 129.439 188.837 125.936 188.23 122.496L176.113 53.7732C175.506 50.3319 173.11 47.4773 169.828 46.2826Z" fill="#2F80EB"/>
<path d="M175.748 102.324L146.118 153.642C145.404 154.88 144.084 155.642 142.654 155.642H83.3971C81.9678 155.642 80.6478 154.88 79.9331 153.642L50.3038 102.324C49.5905 101.086 49.5905 99.5611 50.3038 98.3237L79.9331 47.0051C80.6478 45.7678 81.9678 45.0051 83.3971 45.0051H142.654C144.084 45.0051 145.404 45.7678 146.118 47.0051L175.748 98.3237C176.462 99.5611 176.462 101.086 175.748 102.324ZM151.196 44.0917L88.8531 36.8051C86.7505 36.5584 84.6771 37.4531 83.4118 39.1517L45.9305 89.4984C44.6665 91.1958 44.4038 93.4397 45.2425 95.3837L70.1038 153.017C70.9425 154.961 72.7545 156.31 74.8572 156.556L137.199 163.842C139.301 164.089 141.376 163.193 142.64 161.496L180.121 111.149C181.385 109.45 181.648 107.208 180.809 105.264L155.949 47.6304C155.11 45.6864 153.299 44.3371 151.196 44.0917Z" fill="#2F80EB"/>
<path d="M74.828 127H85.265V111.167H96.767C107.346 111.167 115.156 104.351 115.156 94.695C115.156 85.039 107.346 78.223 96.767 78.223H74.828V127ZM85.265 101.582V87.808H95.631C100.814 87.808 104.364 90.506 104.364 94.695C104.364 98.884 100.814 101.582 95.631 101.582H85.265ZM134.053 127.852C143.922 127.852 150.88 120.894 150.88 111.096V78.223H140.372V110.244C140.372 115.001 137.248 118.338 132.988 118.338C129.722 118.338 126.243 116.137 124.681 112.942L117.723 119.758C120.989 124.515 127.805 127.852 134.053 127.852Z" fill="#002C66"/>
</svg>
