<svg width="6305" height="1000" viewBox="0 0 6305 1000" fill="none" xmlns="http://www.w3.org/2000/svg">
<path d="M847.393 705V305.3H1020.41C1056.19 305.3 1087.02 311.2 1112.91 323.001C1138.79 334.421 1158.78 350.98 1172.86 372.678C1186.95 394.376 1193.99 420.261 1193.99 450.334C1193.99 480.026 1186.95 505.721 1172.86 527.419C1158.78 549.117 1138.79 565.866 1112.91 577.667C1087.02 589.087 1056.19 594.797 1020.41 594.797H898.783L939.895 553.114V705H847.393ZM939.895 563.392L898.783 519.425H1015.27C1043.82 519.425 1065.13 513.334 1079.22 501.153C1093.3 488.972 1100.35 472.032 1100.35 450.334C1100.35 428.255 1093.3 411.125 1079.22 398.944C1065.13 386.763 1043.82 380.672 1015.27 380.672H898.783L939.895 336.705V563.392ZM1310.29 705V397.802H1395.37V484.594L1383.38 459.47C1392.52 437.772 1407.17 421.403 1427.35 410.364C1447.52 398.944 1472.07 393.234 1501.01 393.234V475.458C1497.2 475.077 1493.77 474.887 1490.73 474.887C1487.68 474.506 1484.45 474.316 1481.02 474.316C1456.66 474.316 1436.86 481.358 1421.64 495.443C1406.79 509.147 1399.37 530.655 1399.37 559.966V705H1310.29ZM1779.43 705V645.045L1773.72 631.912V524.564C1773.72 505.531 1767.82 490.685 1756.01 480.026C1744.59 469.367 1726.89 464.038 1702.91 464.038C1686.54 464.038 1670.36 466.703 1654.38 472.032C1638.77 476.981 1625.45 483.833 1614.41 492.588L1582.43 430.349C1599.18 418.548 1619.36 409.412 1642.96 402.941C1666.56 396.47 1690.54 393.234 1714.9 393.234C1761.72 393.234 1798.08 404.273 1823.96 426.352C1849.85 448.431 1862.79 482.881 1862.79 529.703V705H1779.43ZM1685.78 709.568C1661.8 709.568 1641.24 705.571 1624.11 697.577C1606.98 689.202 1593.85 677.973 1584.71 663.888C1575.58 649.803 1571.01 634.006 1571.01 616.495C1571.01 598.223 1575.39 582.235 1584.14 568.531C1593.28 554.827 1607.55 544.168 1626.97 536.555C1646.38 528.561 1671.7 524.564 1702.91 524.564H1784.56V576.525H1712.62C1691.68 576.525 1677.22 579.951 1669.22 586.803C1661.61 593.655 1657.8 602.22 1657.8 612.498C1657.8 623.918 1662.18 633.054 1670.94 639.906C1680.07 646.377 1692.44 649.613 1708.05 649.613C1722.9 649.613 1736.22 646.187 1748.02 639.335C1759.82 632.102 1768.39 621.634 1773.72 607.93L1787.42 649.042C1780.95 668.837 1769.15 683.873 1752.02 694.151C1734.89 704.429 1712.81 709.568 1685.78 709.568ZM2187.23 393.234C2211.59 393.234 2233.29 398.183 2252.32 408.08C2271.73 417.597 2286.96 432.443 2298 452.618C2309.04 472.413 2314.56 497.917 2314.56 529.132V705H2225.48V542.836C2225.48 518.093 2219.96 499.821 2208.92 488.02C2198.27 476.219 2183.04 470.319 2163.24 470.319C2149.16 470.319 2136.41 473.364 2124.99 479.455C2113.95 485.165 2105.19 494.111 2098.72 506.292C2092.63 518.473 2089.59 534.081 2089.59 553.114V705H2000.51V281.318H2089.59V482.881L2069.6 457.186C2080.64 436.63 2096.44 420.832 2116.99 409.793C2137.55 398.754 2160.96 393.234 2187.23 393.234ZM2452.4 705V281.318H2541.48V705H2452.4ZM2869.68 705V645.045L2863.97 631.912V524.564C2863.97 505.531 2858.07 490.685 2846.27 480.026C2834.85 469.367 2817.15 464.038 2793.16 464.038C2776.8 464.038 2760.62 466.703 2744.63 472.032C2729.02 476.981 2715.7 483.833 2704.66 492.588L2672.68 430.349C2689.43 418.548 2709.61 409.412 2733.21 402.941C2756.81 396.47 2780.79 393.234 2805.16 393.234C2851.98 393.234 2888.33 404.273 2914.22 426.352C2940.1 448.431 2953.04 482.881 2953.04 529.703V705H2869.68ZM2776.03 709.568C2752.05 709.568 2731.5 705.571 2714.37 697.577C2697.24 689.202 2684.1 677.973 2674.97 663.888C2665.83 649.803 2661.26 634.006 2661.26 616.495C2661.26 598.223 2665.64 582.235 2674.4 568.531C2683.53 554.827 2697.81 544.168 2717.22 536.555C2736.64 528.561 2761.95 524.564 2793.16 524.564H2874.82V576.525H2802.87C2781.94 576.525 2767.47 579.951 2759.48 586.803C2751.86 593.655 2748.06 602.22 2748.06 612.498C2748.06 623.918 2752.43 633.054 2761.19 639.906C2770.32 646.377 2782.7 649.613 2798.3 649.613C2813.15 649.613 2826.47 646.187 2838.27 639.335C2850.07 632.102 2858.64 621.634 2863.97 607.93L2877.67 649.042C2871.2 668.837 2859.4 683.873 2842.27 694.151C2825.14 704.429 2803.06 709.568 2776.03 709.568ZM3224.89 709.568C3195.96 709.568 3169.89 703.097 3146.67 690.154C3123.45 676.831 3104.98 658.368 3091.28 634.767C3077.96 611.166 3071.3 583.377 3071.3 551.401C3071.3 519.044 3077.96 491.065 3091.28 467.464C3104.98 443.863 3123.45 425.591 3146.67 412.648C3169.89 399.705 3195.96 393.234 3224.89 393.234C3250.78 393.234 3273.43 398.944 3292.84 410.364C3312.26 421.784 3327.29 439.104 3337.95 462.325C3348.61 485.546 3353.94 515.238 3353.94 551.401C3353.94 587.184 3348.8 616.876 3338.52 640.477C3328.25 663.698 3313.4 681.018 3293.99 692.438C3274.95 703.858 3251.92 709.568 3224.89 709.568ZM3240.31 636.48C3254.78 636.48 3267.91 633.054 3279.71 626.202C3291.51 619.35 3300.84 609.643 3307.69 597.081C3314.92 584.138 3318.54 568.912 3318.54 551.401C3318.54 533.51 3314.92 518.283 3307.69 505.721C3300.84 493.159 3291.51 483.452 3279.71 476.6C3267.91 469.748 3254.78 466.322 3240.31 466.322C3225.47 466.322 3212.14 469.748 3200.34 476.6C3188.54 483.452 3179.02 493.159 3171.79 505.721C3164.94 518.283 3161.51 533.51 3161.51 551.401C3161.51 568.912 3164.94 584.138 3171.79 597.081C3179.02 609.643 3188.54 619.35 3200.34 626.202C3212.14 633.054 3225.47 636.48 3240.31 636.48ZM3320.82 705V642.19L3322.54 550.83L3316.83 460.041V281.318H3405.9V705H3320.82ZM3844.19 711.852C3817.17 711.852 3792.23 706.903 3769.39 697.006C3746.93 686.728 3728.47 672.263 3714 653.61L3765.39 591.942C3776.43 606.407 3788.04 617.447 3800.23 625.06C3812.41 632.293 3825.54 635.909 3839.62 635.909C3877.31 635.909 3896.15 613.83 3896.15 569.673V379.53H3755.69V305.3H3988.08V564.534C3988.08 614.021 3975.9 650.945 3951.54 675.308C3927.18 699.671 3891.4 711.852 3844.19 711.852ZM4276.45 709.568C4243.71 709.568 4214.59 702.716 4189.09 689.012C4163.96 675.308 4143.98 656.655 4129.13 633.054C4114.67 609.072 4107.43 581.854 4107.43 551.401C4107.43 520.567 4114.67 493.349 4129.13 469.748C4143.98 445.766 4163.96 427.113 4189.09 413.79C4214.59 400.086 4243.71 393.234 4276.45 393.234C4308.81 393.234 4337.74 400.086 4363.24 413.79C4388.75 427.113 4408.73 445.576 4423.2 469.177C4437.66 492.778 4444.89 520.186 4444.89 551.401C4444.89 581.854 4437.66 609.072 4423.2 633.054C4408.73 656.655 4388.75 675.308 4363.24 689.012C4337.74 702.716 4308.81 709.568 4276.45 709.568ZM4276.45 636.48C4291.29 636.48 4304.62 633.054 4316.42 626.202C4328.22 619.35 4337.55 609.643 4344.4 597.081C4351.25 584.138 4354.68 568.912 4354.68 551.401C4354.68 533.51 4351.25 518.283 4344.4 505.721C4337.55 493.159 4328.22 483.452 4316.42 476.6C4304.62 469.748 4291.29 466.322 4276.45 466.322C4261.6 466.322 4248.28 469.748 4236.48 476.6C4224.68 483.452 4215.16 493.159 4207.93 505.721C4201.08 518.283 4197.65 533.51 4197.65 551.401C4197.65 568.912 4201.08 584.138 4207.93 597.081C4215.16 609.643 4224.68 619.35 4236.48 626.202C4248.28 633.054 4261.6 636.48 4276.45 636.48ZM4664.88 709.568C4638.62 709.568 4613.3 706.523 4588.94 700.432C4564.96 693.961 4545.93 685.967 4531.84 676.45L4561.53 612.498C4575.62 621.253 4592.18 628.486 4611.21 634.196C4630.62 639.525 4649.66 642.19 4668.31 642.19C4688.87 642.19 4703.33 639.716 4711.71 634.767C4720.46 629.818 4724.84 622.966 4724.84 614.211C4724.84 606.978 4721.41 601.649 4714.56 598.223C4708.09 594.416 4699.34 591.561 4688.3 589.658C4677.26 587.755 4665.08 585.851 4651.75 583.948C4638.81 582.045 4625.68 579.57 4612.35 576.525C4599.03 573.099 4586.85 568.15 4575.81 561.679C4564.77 555.208 4555.82 546.452 4548.97 535.413C4542.5 524.374 4539.26 510.099 4539.26 492.588C4539.26 473.174 4544.78 456.044 4555.82 441.198C4567.24 426.352 4583.61 414.742 4604.93 406.367C4626.25 397.612 4651.75 393.234 4681.44 393.234C4702.38 393.234 4723.7 395.518 4745.4 400.086C4767.09 404.654 4785.18 411.316 4799.64 420.071L4769.95 483.452C4755.1 474.697 4740.07 468.796 4724.84 465.751C4709.99 462.325 4695.53 460.612 4681.44 460.612C4661.65 460.612 4647.18 463.277 4638.05 468.606C4628.91 473.935 4624.34 480.787 4624.34 489.162C4624.34 496.775 4627.58 502.485 4634.05 506.292C4640.9 510.099 4649.85 513.144 4660.89 515.428C4671.93 517.712 4683.92 519.806 4696.86 521.709C4710.18 523.232 4723.51 525.706 4736.83 529.132C4750.15 532.558 4762.15 537.507 4772.8 543.978C4783.84 550.069 4792.79 558.634 4799.64 569.673C4806.49 580.332 4809.92 594.416 4809.92 611.927C4809.92 630.96 4804.21 647.9 4792.79 662.746C4781.37 677.211 4764.81 688.631 4743.11 697.006C4721.79 705.381 4695.72 709.568 4664.88 709.568ZM5108.69 393.234C5133.06 393.234 5154.76 398.183 5173.79 408.08C5193.2 417.597 5208.43 432.443 5219.47 452.618C5230.51 472.413 5236.03 497.917 5236.03 529.132V705H5146.95V542.836C5146.95 518.093 5141.43 499.821 5130.39 488.02C5119.73 476.219 5104.51 470.319 5084.71 470.319C5070.63 470.319 5057.88 473.364 5046.46 479.455C5035.42 485.165 5026.66 494.111 5020.19 506.292C5014.1 518.473 5011.05 534.081 5011.05 553.114V705H4921.98V281.318H5011.05V482.881L4991.07 457.186C5002.11 436.63 5017.91 420.832 5038.46 409.793C5059.02 398.754 5082.43 393.234 5108.69 393.234ZM5373.87 705V397.802H5462.95V705H5373.87ZM5418.41 354.977C5402.04 354.977 5388.72 350.219 5378.44 340.702C5368.16 331.185 5363.02 319.385 5363.02 305.3C5363.02 291.215 5368.16 279.415 5378.44 269.898C5388.72 260.381 5402.04 255.623 5418.41 255.623C5434.78 255.623 5448.1 260.191 5458.38 269.327C5468.66 278.082 5473.8 289.502 5473.8 303.587C5473.8 318.433 5468.66 330.805 5458.38 340.702C5448.48 350.219 5435.16 354.977 5418.41 354.977Z" fill="black"/>
<path d="M20 550C8.95432 550 1.06779e-07 541.046 2.38498e-07 530L9.5399e-07 470C1.08571e-06 458.954 8.95431 450 20 450L500 450L500 550L20 550Z" fill="black"/>
<path d="M500 0L600 0V1000H500L500 0Z" fill="black"/>
<path d="M370 300C358.954 300 350 291.046 350 280L350 220C350 208.954 358.954 200 370 200L500 200L500 300L370 300Z" fill="black"/>
<path d="M780 100C791.046 100 800 91.0457 800 80L800 20C800 8.9543 791.046 1.06779e-07 780 2.38498e-07L500 3.57746e-06L500 100L780 100Z" fill="black"/>
<path d="M780 1000C791.046 1000 800 991.046 800 980L800 920C800 908.954 791.046 900 780 900L500 900L500 1000L780 1000Z" fill="black"/>
<path d="M220 800C208.954 800 200 791.046 200 780L200 720C200 708.954 208.954 700 220 700L500 700L500 800L220 800Z" fill="black"/>
<path d="M6285 450C6296.05 450 6305 458.954 6305 470L6305 530C6305 541.046 6296.05 550 6285 550L5805 550L5805 450L6285 450Z" fill="black"/>
<path d="M5805 1000H5705V0H5805V1000Z" fill="black"/>
<path d="M5935 700C5946.05 700 5955 708.954 5955 720L5955 780C5955 791.046 5946.05 800 5935 800L5805 800L5805 700L5935 700Z" fill="black"/>
<path d="M5525 900C5513.95 900 5505 908.954 5505 920L5505 980C5505 991.046 5513.95 1000 5525 1000L5805 1000L5805 900L5525 900Z" fill="black"/>
<path d="M5525 -2.38498e-07C5513.95 -1.06779e-07 5505 8.95431 5505 20L5505 80C5505 91.0457 5513.95 100 5525 100L5805 100L5805 -3.57746e-06L5525 -2.38498e-07Z" fill="black"/>
<path d="M6085 200C6096.05 200 6105 208.954 6105 220L6105 280C6105 291.046 6096.05 300 6085 300L5805 300L5805 200L6085 200Z" fill="black"/>
</svg>
