<svg width="1598" height="300" viewBox="0 0 1598 300" fill="none" xmlns="http://www.w3.org/2000/svg">
<path d="M274.615 28.5473C289.746 60.209 260.045 120.731 252.48 173.687C244.635 226.643 259.485 271.754 244.074 289.967C228.664 307.899 183.553 298.652 150.21 286.604C116.867 274.556 95.5726 259.706 67.8336 241.773C39.8144 223.841 5.35073 202.547 0.587463 176.489C-4.1758 150.431 20.7613 119.61 48.7805 87.948C76.5195 56.2863 107.341 23.5039 153.012 8.65367C198.683 -6.19651 259.205 -3.39459 274.615 28.5473Z" fill="#2F80ED"/>
<path d="M173.22 79.852C157.956 79.852 145.236 86.424 136.544 97.66V82.396H105.592V228.464H136.544V176.524C145.236 187.972 157.956 194.544 173.22 194.544C202.476 194.544 223.676 170.8 223.676 137.092C223.676 103.596 202.476 79.852 173.22 79.852ZM164.316 168.468C149.264 168.468 138.24 157.444 136.544 141.332V132.852C138.24 116.952 149.264 105.928 164.316 105.928C181.488 105.928 193.572 118.86 193.572 137.092C193.572 155.536 181.488 168.468 164.316 168.468Z" fill="white"/>
<path d="M342.627 223H372.027V178.4H404.427C434.227 178.4 456.227 159.2 456.227 132C456.227 104.8 434.227 85.6 404.427 85.6H342.627V223ZM372.027 151.4V112.6H401.227C415.827 112.6 425.827 120.2 425.827 132C425.827 143.8 415.827 151.4 401.227 151.4H372.027ZM503.059 138.8V119.6H473.859V223H503.059V173.6C503.059 154.2 516.859 141.8 538.459 141.8V117.2C522.659 117.2 509.859 125.4 503.059 138.8ZM601.504 117.2C587.104 117.2 572.904 121.2 558.304 128.6L568.104 148C576.304 143.8 585.304 140.6 594.904 140.6C611.904 140.6 618.704 150.2 618.704 161.2V163.2C609.904 159.8 600.704 158 592.304 158C568.304 158 549.304 172 549.304 192.4C549.304 212.2 566.304 225.4 588.304 225.4C599.504 225.4 611.304 221 618.704 212.6V223H646.904V161.2C646.904 134.2 628.504 117.2 601.504 117.2ZM594.904 205.2C584.904 205.2 577.504 200 577.504 191.6C577.504 183.2 585.904 177 596.504 177C604.504 177 612.104 178.4 618.704 180.8V190.4C616.704 200 606.104 205.2 594.904 205.2ZM731.315 117.2C718.115 117.2 706.715 123.2 700.315 132.2V83.2H671.115V223H700.315V161.8C700.315 150.6 709.715 141.8 721.915 141.8C733.515 141.8 741.515 150.6 741.515 163.4V223H769.715V157.2C769.715 133.8 753.715 117.2 731.315 117.2ZM794.366 223H823.566V83.2H794.366V223ZM895.254 117.2C880.854 117.2 866.654 121.2 852.054 128.6L861.854 148C870.054 143.8 879.054 140.6 888.654 140.6C905.654 140.6 912.454 150.2 912.454 161.2V163.2C903.654 159.8 894.454 158 886.054 158C862.054 158 843.054 172 843.054 192.4C843.054 212.2 860.054 225.4 882.054 225.4C893.254 225.4 905.054 221 912.454 212.6V223H940.654V161.2C940.654 134.2 922.254 117.2 895.254 117.2ZM888.654 205.2C878.654 205.2 871.254 200 871.254 191.6C871.254 183.2 879.654 177 890.254 177C898.254 177 905.854 178.4 912.454 180.8V190.4C910.454 200 899.854 205.2 888.654 205.2ZM1042.46 83.2V134.4C1034.26 123.6 1022.26 117.2 1007.66 117.2C980.065 117.2 960.065 139.6 960.065 171.2C960.065 203 980.065 225.4 1007.66 225.4C1022.26 225.4 1034.26 219 1042.46 208.2V223H1071.66V83.2H1042.46ZM1016.06 200.8C999.865 200.8 988.465 188.6 988.465 171.2C988.465 154 999.865 141.8 1016.06 141.8C1031.46 141.8 1042.46 154 1042.46 171.2C1042.46 188.6 1031.46 200.8 1016.06 200.8Z" fill="#050E1A"/>
<path d="M1132.9 225.4C1160.7 225.4 1180.3 205.8 1180.3 178.2V85.6H1150.7V175.8C1150.7 189.2 1141.9 198.6 1129.9 198.6C1120.7 198.6 1110.9 192.4 1106.5 183.4L1086.9 202.6C1096.1 216 1115.3 225.4 1132.9 225.4ZM1257.08 225.4C1287.68 225.4 1313.28 200.6 1313.28 171.2C1313.28 141.8 1287.68 117.2 1257.08 117.2C1226.28 117.2 1200.48 141.8 1200.48 171.2C1200.48 200.6 1226.28 225.4 1257.08 225.4ZM1257.08 200.8C1241.48 200.8 1228.48 187.2 1228.48 171.2C1228.48 155.2 1241.48 141.8 1257.08 141.8C1272.48 141.8 1285.48 155.2 1285.48 171.2C1285.48 187.2 1272.48 200.8 1257.08 200.8ZM1371.84 225.4C1397.24 225.4 1413.84 212.4 1413.84 192C1413.84 169.4 1394.04 163.4 1376.24 158.8C1362.24 155 1358.04 153.4 1358.04 147.8C1358.04 144.2 1363.04 141.6 1370.24 141.6C1379.04 141.6 1389.84 145 1399.24 150.8L1411.04 130C1399.64 122.4 1385.04 117.2 1370.24 117.2C1345.84 117.2 1329.64 131.2 1329.84 150.8C1330.04 171.2 1346.44 177 1367.64 182.2C1378.24 185 1385.84 187 1385.84 193.4C1385.84 198 1380.24 201.2 1372.44 201.2C1358.64 201.2 1347.04 196.2 1337.84 189.6L1325.24 209.8C1337.64 219.8 1355.24 225.4 1371.84 225.4ZM1493.23 117.2C1480.03 117.2 1468.63 123.2 1462.23 132.2V83.2H1433.03V223H1462.23V161.8C1462.23 150.6 1471.63 141.8 1483.83 141.8C1495.43 141.8 1503.43 150.6 1503.43 163.4V223H1531.63V157.2C1531.63 133.8 1515.63 117.2 1493.23 117.2ZM1570.88 105.4C1579.48 105.4 1586.48 98.2 1586.48 89.4C1586.48 81.2 1579.48 73.8 1570.88 73.8C1561.88 73.8 1554.88 81.2 1554.88 89.4C1554.88 98.2 1561.88 105.4 1570.88 105.4ZM1556.08 223H1585.28V119.6H1556.08V223Z" fill="#2F80ED"/>
</svg>
