<svg width="200" height="200" viewBox="0 0 200 200" fill="none" xmlns="http://www.w3.org/2000/svg">
<rect width="200" height="200" fill="#0075C9"/>
<path d="M34.1302 118.249C32.9318 118.245 31.7444 118.478 30.6361 118.934C29.5279 119.39 28.5207 120.06 27.6723 120.906C26.8239 121.753 26.1511 122.758 25.6925 123.865C25.2339 124.973 24.9986 126.159 25 127.358V165.892C25.0029 168.306 25.9634 170.621 27.671 172.329C29.3785 174.037 31.6936 174.997 34.1084 175H72.6422C75.0579 175 77.3746 174.04 79.0828 172.332C80.7909 170.624 81.7506 168.307 81.7506 165.892C81.7506 163.476 80.7909 161.159 79.0828 159.451C77.3746 157.743 75.0579 156.783 72.6422 156.783H50.8778C48.8575 156.783 46.92 155.981 45.4914 154.552C44.0629 153.124 43.2603 151.186 43.2603 149.166V127.401C43.2603 124.986 42.3007 122.669 40.5925 120.961C38.8844 119.253 36.5676 118.293 34.1519 118.293L34.1302 118.249Z" fill="white"/>
<path d="M25 52.1075V91.0113C25 92.1946 25.2331 93.3663 25.6859 94.4595C26.1387 95.5527 26.8024 96.546 27.6391 97.3827C28.4758 98.2194 29.4691 98.8831 30.5623 99.3359C31.6555 99.7887 32.8272 100.022 34.0105 100.022C35.2218 100.023 36.4215 99.7858 37.5411 99.3233C38.6606 98.8607 39.678 98.182 40.535 97.3259C41.3921 96.4699 42.072 95.4533 42.5359 94.3343C42.9998 93.2153 43.2385 92.0159 43.2385 90.8046V69.0402C43.2385 67.0401 44.0331 65.1219 45.4474 63.7077C46.8616 62.2934 48.7798 61.4988 50.7799 61.4988H72.7401C75.1299 61.4988 77.4217 60.5495 79.1115 58.8597C80.8013 57.17 81.7506 54.8781 81.7506 52.4884V52.1184C81.7535 50.9539 81.5259 49.8004 81.0809 48.7243C80.636 47.6482 79.9824 46.6707 79.158 45.8483C78.3336 45.0259 77.3546 44.3748 76.2774 43.9325C75.2002 43.4902 74.0461 43.2654 72.8816 43.2712H33.8363C32.6755 43.2698 31.5258 43.4973 30.4531 43.9409C29.3804 44.3845 28.4057 45.0353 27.5849 45.8561C26.7641 46.6769 26.1133 47.6516 25.6697 48.7243C25.2262 49.797 24.9986 50.9467 25 52.1075Z" fill="white"/>
<path d="M130.873 156.783H109.108C107.912 156.782 106.727 157.016 105.621 157.474C104.515 157.931 103.511 158.602 102.665 159.448C101.819 160.294 101.148 161.299 100.69 162.404C100.233 163.51 99.9986 164.695 100 165.892C99.9986 167.088 100.233 168.273 100.69 169.379C101.148 170.485 101.819 171.489 102.665 172.335C103.511 173.181 104.515 173.852 105.621 174.31C106.727 174.767 107.912 175.001 109.108 175H147.642C148.838 175 150.023 174.764 151.128 174.307C152.233 173.849 153.237 173.178 154.083 172.332C154.929 171.486 155.599 170.482 156.057 169.377C156.515 168.272 156.751 167.088 156.751 165.892V127.358C156.752 126.161 156.517 124.976 156.06 123.87C155.603 122.765 154.932 121.76 154.086 120.914C153.24 120.068 152.235 119.397 151.13 118.94C150.024 118.483 148.839 118.248 147.642 118.249C146.445 118.247 145.26 118.48 144.153 118.937C143.047 119.394 142.042 120.064 141.195 120.911C140.349 121.757 139.678 122.762 139.221 123.869C138.765 124.975 138.531 126.161 138.534 127.358V149.122C138.534 151.142 137.731 153.08 136.303 154.509C134.874 155.937 132.937 156.74 130.916 156.74L130.873 156.783Z" fill="white"/>
<path d="M158.938 25H116.04C113.931 24.9986 111.841 25.4131 109.892 26.2197C107.943 27.0264 106.171 28.2095 104.68 29.7013C103.188 31.1931 102.005 32.9643 101.198 34.9137C100.391 36.8631 99.9768 38.9524 99.9782 41.0621V83.9597C99.9768 86.0694 100.391 88.1587 101.198 90.1081C102.005 92.0574 103.188 93.8287 104.68 95.3205C106.171 96.8123 107.943 97.9953 109.892 98.802C111.841 99.6087 113.931 100.023 116.04 100.022H158.938C161.048 100.023 163.137 99.6087 165.086 98.802C167.036 97.9953 168.807 96.8123 170.299 95.3205C171.79 93.8287 172.974 92.0574 173.78 90.1081C174.587 88.1587 175.001 86.0694 175 83.9597V41.0621C175 38.9528 174.585 36.8641 173.777 34.9154C172.97 32.9667 171.787 31.196 170.295 29.7045C168.804 28.213 167.033 27.0299 165.085 26.2227C163.136 25.4155 161.047 25 158.938 25Z" fill="white"/>
</svg>
