<svg width="200" height="200" viewBox="0 0 200 200" fill="none" xmlns="http://www.w3.org/2000/svg">
<rect width="200" height="200" fill="#022042"/>
<path d="M51.3814 60H30.1728C27.316 60 25 62.316 25 65.1728V134.681C25 137.538 27.316 139.854 30.1728 139.854H51.3814C54.2383 139.854 56.5542 137.538 56.5542 134.681V65.1728C56.5542 62.316 54.2383 60 51.3814 60Z" fill="white"/>
<path d="M86.5927 99.927H65.3841C62.5273 99.927 60.2113 102.243 60.2113 105.1V134.681C60.2113 137.538 62.5273 139.854 65.3841 139.854H86.5927C89.4496 139.854 91.7656 137.538 91.7656 134.681V105.1C91.7656 102.243 89.4496 99.927 86.5927 99.927Z" fill="white"/>
<path d="M121.443 60H100.235C97.3777 60 95.0617 62.316 95.0617 65.1728V134.681C95.0617 137.538 97.3777 139.854 100.235 139.854H121.443C124.3 139.854 126.616 137.538 126.616 134.681V65.1728C126.616 62.316 124.3 60 121.443 60Z" fill="white"/>
<path d="M169.707 60H135.398C133.986 60.0064 132.635 60.5723 131.641 61.5736C130.646 62.575 130.089 63.9299 130.093 65.3412V93.491C130.099 94.8961 130.66 96.2418 131.653 97.2354C132.647 98.2289 133.993 98.7899 135.398 98.7962H169.707C171.115 98.7898 172.463 98.2252 173.455 97.2261C174.448 96.227 175.003 94.8751 175 93.467V65.3412C175.003 64.643 174.869 63.9509 174.604 63.3046C174.34 62.6583 173.951 62.0703 173.46 61.5744C172.968 61.0784 172.384 60.6841 171.74 60.4139C171.096 60.1438 170.405 60.0032 169.707 60ZM158.712 86.5498C158.718 86.7752 158.68 86.9996 158.599 87.21C158.518 87.4205 158.397 87.6129 158.241 87.7762C158.086 87.9395 157.9 88.0704 157.693 88.1613C157.487 88.2523 157.265 88.3015 157.039 88.3062H141.449C141.223 88.3015 141 88.2523 140.793 88.1615C140.586 88.0707 140.399 87.94 140.243 87.7769C140.086 87.6138 139.964 87.4215 139.882 87.211C139.8 87.0004 139.76 86.7758 139.765 86.5498V74.7365C139.758 74.2823 139.932 73.844 140.247 73.5172C140.563 73.1904 140.995 73.0017 141.449 72.9922H157.015C157.242 72.9938 157.466 73.0403 157.674 73.1291C157.882 73.2179 158.071 73.3472 158.228 73.5095C158.386 73.6718 158.51 73.8639 158.593 74.0745C158.676 74.2852 158.716 74.5102 158.712 74.7365V86.5498Z" fill="white"/>
<path d="M169.707 100.853H135.398C134.699 100.855 134.008 100.994 133.364 101.263C132.719 101.531 132.134 101.924 131.641 102.419C131.149 102.914 130.758 103.501 130.493 104.147C130.227 104.793 130.091 105.484 130.093 106.183V134.332C130.086 135.034 130.219 135.729 130.482 136.379C130.746 137.029 131.136 137.62 131.629 138.119C132.122 138.618 132.709 139.014 133.355 139.285C134.002 139.556 134.696 139.696 135.398 139.698H169.707C170.405 139.696 171.095 139.557 171.739 139.288C172.383 139.019 172.967 138.626 173.459 138.131C173.951 137.636 174.34 137.049 174.604 136.403C174.869 135.758 175.003 135.066 175 134.368V106.183C175.003 105.485 174.869 104.793 174.604 104.148C174.34 103.502 173.951 102.915 173.459 102.42C172.967 101.925 172.383 101.532 171.739 101.263C171.095 100.994 170.405 100.855 169.707 100.853ZM158.712 124.985C158.716 125.209 158.677 125.433 158.595 125.642C158.514 125.851 158.392 126.042 158.237 126.204C158.082 126.366 157.896 126.496 157.69 126.586C157.485 126.676 157.264 126.725 157.039 126.729H141.449C140.995 126.72 140.563 126.531 140.247 126.204C139.932 125.878 139.758 125.439 139.765 124.985V113.112C139.758 112.657 139.932 112.219 140.247 111.892C140.563 111.566 140.995 111.377 141.449 111.367H157.015C157.242 111.369 157.466 111.415 157.674 111.504C157.882 111.593 158.071 111.722 158.228 111.885C158.386 112.047 158.51 112.239 158.593 112.45C158.676 112.66 158.716 112.885 158.712 113.112V124.985Z" fill="white"/>
</svg>
